{
  "accessors": [
    {
      "name": "Layer_2_1_positions",
      "componentType": 5126,
      "count": 32918,
      "min": [
        17.038360595703125,
        -138.24868774414062,
        -48.093605041503906
      ],
      "max": [
        66.5791015625,
        -87.21243286132812,
        6.119859218597412
      ],
      "type": "VEC3",
      "bufferView": 0,
      "byteOffset": 0
    },
    {
      "name": "Layer_2_1_normals",
      "componentType": 5126,
      "count": 32918,
      "min": [
        -0.9999909996986389,
        -0.9999930262565613,
        -0.9999070167541504
      ],
      "max": [
        0.9999579787254333,
        0.9998149871826172,
        0.9998859763145447
      ],
      "type": "VEC3",
      "bufferView": 0,
      "byteOffset": 395016
    },
    {
      "name": "Layer_2_1_texcoords",
      "componentType": 5126,
      "count": 32918,
      "min": [
        0.000004999999873689376,
        0.08342300355434418
      ],
      "max": [
        0.9999200105667114,
        0.9999880194664001
      ],
      "type": "VEC2",
      "bufferView": 1,
      "byteOffset": 0
    },
    {
      "name": "Layer_2_1_0_indices",
      "componentType": 5123,
      "count": 165870,
      "min": [
        0
      ],
      "max": [
        32917
      ],
      "type": "SCALAR",
      "bufferView": 2,
      "byteOffset": 0
    }
  ],
  "asset": {
    "generator": "obj2gltf",
    "version": "2.0"
  },
  "buffers": [
    {
      "name": "princess2-head",
      "byteLength": 2133952,
      "uri": "data:application/octet-stream;base64,"
    }
  ],
  "bufferViews": [
    {
      "name": "bufferView_0",
      "buffer": 0,
      "byteLength": 790032,
      "byteOffset": 0,
      "byteStride": 12,
      "target": 34962
    },
    {
      "name": "bufferView_1",
      "buffer": 0,
      "byteLength": 263344,
      "byteOffset": 790032,
      "byteStride": 8,
      "target": 34962
    },
    {
      "name": "bufferView_2",
      "buffer": 0,
      "byteLength": 331740,
      "byteOffset": 1053376,
      "target": 34963
    },
    {
      "buffer": 0,
      "byteOffset": 1385116,
      "byteLength": 748835
    }
  ],
  "images": [
    {
      "name": "princess2-head_Layer_2",
      "mimeType": "image/png",
      "bufferView": 3
    }
  ],
  "materials": [
    {
      "name": "Layer_2_mtl",
      "pbrMetallicRoughness": {
        "baseColorTexture": {
          "index": 0
        },
        "baseColorFactor": [
          1,
          1,
          1,
          1
        ],
        "metallicFactor": 0,
        "roughnessFactor": 1
      },
      "emissiveFactor": [
        0,
        0,
        0
      ],
      "alphaMode": "OPAQUE",
      "doubleSided": false
    }
  ],
  "meshes": [
    {
      "name": "Layer_2_1",
      "primitives": [
        {
          "attributes": {
            "POSITION": 0,
            "NORMAL": 1,
            "TEXCOORD_0": 2
          },
          "indices": 3,
          "material": 0,
          "mode": 4
        }
      ]
    }
  ],
  "nodes": [
    {
      "name": "Layer_2",
      "mesh": 0
    }
  ],
  "samplers": [
    {
      "magFilter": 9729,
      "minFilter": 9986,
      "wrapS": 10497,
      "wrapT": 10497
    }
  ],
  "scene": 0,
  "scenes": [
    {
      "nodes": [
        0
      ]
    }
  ],
  "textures": [
    {
      "name": "princess2-head_Layer_2",
      "sampler": 0,
      "source": 0
    }
  ]
}
