{
  "accessors": [
    {
      "name": "Layer_6_1_positions",
      "componentType": 5126,
      "count": 8941,
      "min": [
        -18.780540466308594,
        -112.37057495117188,
        -84.17279815673828
      ],
      "max": [
        10.52418327331543,
        -84.43321228027344,
        -55.439491271972656
      ],
      "type": "VEC3",
      "bufferView": 0,
      "byteOffset": 0
    },
    {
      "name": "Layer_6_1_normals",
      "componentType": 5126,
      "count": 8941,
      "min": [
        -0.9995750188827515,
        -0.9998390078544617,
        -0.9995049834251404
      ],
      "max": [
        0.998308002948761,
        0.9999560117721558,
        0.9995620250701904
      ],
      "type": "VEC3",
      "bufferView": 0,
      "byteOffset": 107292
    },
    {
      "name": "Layer_6_1_texcoords",
      "componentType": 5126,
      "count": 8941,
      "min": [
        0.000014000000192027073,
        0.00015300000086426735
      ],
      "max": [
        0.9999139904975891,
        0.9999690055847168
      ],
      "type": "VEC2",
      "bufferView": 1,
      "byteOffset": 0
    },
    {
      "name": "Layer_6_1_0_indices",
      "componentType": 5123,
      "count": 45780,
      "min": [
        0
      ],
      "max": [
        8940
      ],
      "type": "SCALAR",
      "bufferView": 2,
      "byteOffset": 0
    }
  ],
  "asset": {
    "generator": "obj2gltf",
    "version": "2.0"
  },
  "buffers": [
    {
      "name": "princess2-left",
      "byteLength": 1049656,
      "uri": "data:application/octet-stream;base64,"
    }
  ],
  "bufferViews": [
    {
      "name": "bufferView_0",
      "buffer": 0,
      "byteLength": 214584,
      "byteOffset": 0,
      "byteStride": 12,
      "target": 34962
    },
    {
      "name": "bufferView_1",
      "buffer": 0,
      "byteLength": 71528,
      "byteOffset": 214584,
      "byteStride": 8,
      "target": 34962
    },
    {
      "name": "bufferView_2",
      "buffer": 0,
      "byteLength": 91560,
      "byteOffset": 286112,
      "target": 34963
    },
    {
      "buffer": 0,
      "byteOffset": 377672,
      "byteLength": 671982
    }
  ],
  "images": [
    {
      "name": "princess2-left_Layer_6",
      "mimeType": "image/png",
      "bufferView": 3
    }
  ],
  "materials": [
    {
      "name": "Layer_6_mtl",
      "pbrMetallicRoughness": {
        "baseColorTexture": {
          "index": 0
        },
        "baseColorFactor": [
          1,
          1,
          1,
          1
        ],
        "metallicFactor": 0,
        "roughnessFactor": 1
      },
      "emissiveFactor": [
        0,
        0,
        0
      ],
      "alphaMode": "OPAQUE",
      "doubleSided": false
    }
  ],
  "meshes": [
    {
      "name": "Layer_6_1",
      "primitives": [
        {
          "attributes": {
            "POSITION": 0,
            "NORMAL": 1,
            "TEXCOORD_0": 2
          },
          "indices": 3,
          "material": 0,
          "mode": 4
        }
      ]
    }
  ],
  "nodes": [
    {
      "name": "Layer_6",
      "mesh": 0
    }
  ],
  "samplers": [
    {
      "magFilter": 9729,
      "minFilter": 9986,
      "wrapS": 10497,
      "wrapT": 10497
    }
  ],
  "scene": 0,
  "scenes": [
    {
      "nodes": [
        0
      ]
    }
  ],
  "textures": [
    {
      "name": "princess2-left_Layer_6",
      "sampler": 0,
      "source": 0
    }
  ]
}
