{
  "accessors": [
    {
      "name": "Layer_3_1_positions",
      "componentType": 5126,
      "count": 8977,
      "min": [
        -8.661953926086426,
        -154.75624084472656,
        -88.03758239746094
      ],
      "max": [
        27.235353469848633,
        -124.64103698730469,
        -57.76284408569336
      ],
      "type": "VEC3",
      "bufferView": 0,
      "byteOffset": 0
    },
    {
      "name": "Layer_3_1_normals",
      "componentType": 5126,
      "count": 8977,
      "min": [
        -0.9998289942741394,
        -0.9997230172157288,
        -0.9997659921646118
      ],
      "max": [
        0.999563992023468,
        0.9997770190238953,
        0.9999290108680725
      ],
      "type": "VEC3",
      "bufferView": 0,
      "byteOffset": 107724
    },
    {
      "name": "Layer_3_1_texcoords",
      "componentType": 5126,
      "count": 8977,
      "min": [
        0.00009899999713525176,
        0.0002479999966453761
      ],
      "max": [
        0.9999960064888,
        0.9998199939727783
      ],
      "type": "VEC2",
      "bufferView": 1,
      "byteOffset": 0
    },
    {
      "name": "Layer_3_1_0_indices",
      "componentType": 5123,
      "count": 45780,
      "min": [
        0
      ],
      "max": [
        8976
      ],
      "type": "SCALAR",
      "bufferView": 2,
      "byteOffset": 0
    }
  ],
  "asset": {
    "generator": "obj2gltf",
    "version": "2.0"
  },
  "buffers": [
    {
      "name": "princess2-right",
      "byteLength": 1093632,
      "uri": "data:application/octet-stream;base64,"
    }
  ],
  "bufferViews": [
    {
      "name": "bufferView_0",
      "buffer": 0,
      "byteLength": 215448,
      "byteOffset": 0,
      "byteStride": 12,
      "target": 34962
    },
    {
      "name": "bufferView_1",
      "buffer": 0,
      "byteLength": 71816,
      "byteOffset": 215448,
      "byteStride": 8,
      "target": 34962
    },
    {
      "name": "bufferView_2",
      "buffer": 0,
      "byteLength": 91560,
      "byteOffset": 287264,
      "target": 34963
    },
    {
      "buffer": 0,
      "byteOffset": 378824,
      "byteLength": 714806
    }
  ],
  "images": [
    {
      "name": "princess2-right_Layer_3",
      "mimeType": "image/png",
      "bufferView": 3
    }
  ],
  "materials": [
    {
      "name": "Layer_3_mtl",
      "pbrMetallicRoughness": {
        "baseColorTexture": {
          "index": 0
        },
        "baseColorFactor": [
          1,
          1,
          1,
          1
        ],
        "metallicFactor": 0,
        "roughnessFactor": 1
      },
      "emissiveFactor": [
        0,
        0,
        0
      ],
      "alphaMode": "OPAQUE",
      "doubleSided": false
    }
  ],
  "meshes": [
    {
      "name": "Layer_3_1",
      "primitives": [
        {
          "attributes": {
            "POSITION": 0,
            "NORMAL": 1,
            "TEXCOORD_0": 2
          },
          "indices": 3,
          "material": 0,
          "mode": 4
        }
      ]
    }
  ],
  "nodes": [
    {
      "name": "Layer_3",
      "mesh": 0
    }
  ],
  "samplers": [
    {
      "magFilter": 9729,
      "minFilter": 9986,
      "wrapS": 10497,
      "wrapT": 10497
    }
  ],
  "scene": 0,
  "scenes": [
    {
      "nodes": [
        0
      ]
    }
  ],
  "textures": [
    {
      "name": "princess2-right_Layer_3",
      "sampler": 0,
      "source": 0
    }
  ]
}
