{
  "accessors": [
    {
      "name": "dress1_1_positions",
      "componentType": 5126,
      "count": 2812,
      "min": [
        -1.95940101146698,
        -62.14106750488281,
        -24.675739288330078
      ],
      "max": [
        12.119093894958496,
        -38.98683166503906,
        -10.196298599243164
      ],
      "type": "VEC3",
      "bufferView": 0,
      "byteOffset": 0
    },
    {
      "name": "dress1_1_normals",
      "componentType": 5126,
      "count": 2812,
      "min": [
        -0.9994720220565796,
        -0.999966025352478,
        -0.999888002872467
      ],
      "max": [
        0.9990760087966919,
        0.9961370229721069,
        0.9998940229415894
      ],
      "type": "VEC3",
      "bufferView": 0,
      "byteOffset": 33744
    },
    {
      "name": "dress1_1_texcoords",
      "componentType": 5126,
      "count": 2812,
      "min": [
        0.00015100000018719584,
        0.00009899999713525176
      ],
      "max": [
        0.9824960231781006,
        0.999879002571106
      ],
      "type": "VEC2",
      "bufferView": 1,
      "byteOffset": 0
    },
    {
      "name": "dress1_1_0_indices",
      "componentType": 5123,
      "count": 13908,
      "min": [
        0
      ],
      "max": [
        2811
      ],
      "type": "SCALAR",
      "bufferView": 2,
      "byteOffset": 0
    }
  ],
  "asset": {
    "generator": "obj2gltf",
    "version": "2.0"
  },
  "buffers": [
    {
      "name": "dress1",
      "byteLength": 854144,
      "uri": "data:application/octet-stream;base64,"
    }
  ],
  "bufferViews": [
    {
      "name": "bufferView_0",
      "buffer": 0,
      "byteLength": 67488,
      "byteOffset": 0,
      "byteStride": 12,
      "target": 34962
    },
    {
      "name": "bufferView_1",
      "buffer": 0,
      "byteLength": 22496,
      "byteOffset": 67488,
      "byteStride": 8,
      "target": 34962
    },
    {
      "name": "bufferView_2",
      "buffer": 0,
      "byteLength": 27816,
      "byteOffset": 89984,
      "target": 34963
    },
    {
      "buffer": 0,
      "byteOffset": 117800,
      "byteLength": 736344
    }
  ],
  "images": [
    {
      "name": "dress1_dress1",
      "mimeType": "image/png",
      "bufferView": 3
    }
  ],
  "materials": [
    {
      "name": "dress1_mtl",
      "pbrMetallicRoughness": {
        "baseColorTexture": {
          "index": 0
        },
        "baseColorFactor": [
          1,
          1,
          1,
          1
        ],
        "metallicFactor": 0,
        "roughnessFactor": 1
      },
      "emissiveFactor": [
        0,
        0,
        0
      ],
      "alphaMode": "OPAQUE",
      "doubleSided": false
    }
  ],
  "meshes": [
    {
      "name": "dress1_1",
      "primitives": [
        {
          "attributes": {
            "POSITION": 0,
            "NORMAL": 1,
            "TEXCOORD_0": 2
          },
          "indices": 3,
          "material": 0,
          "mode": 4
        }
      ]
    }
  ],
  "nodes": [
    {
      "name": "dress1",
      "mesh": 0
    }
  ],
  "samplers": [
    {
      "magFilter": 9729,
      "minFilter": 9986,
      "wrapS": 10497,
      "wrapT": 10497
    }
  ],
  "scene": 0,
  "scenes": [
    {
      "nodes": [
        0
      ]
    }
  ],
  "textures": [
    {
      "name": "dress1_dress1",
      "sampler": 0,
      "source": 0
    }
  ]
}
