{
  "accessors": [
    {
      "name": "dress2_1_positions",
      "componentType": 5126,
      "count": 616,
      "min": [
        12.877096176147461,
        -63.57197570800781,
        -23.13982582092285
      ],
      "max": [
        31.869388580322266,
        -36.774810791015625,
        -7.754946231842041
      ],
      "type": "VEC3",
      "bufferView": 0,
      "byteOffset": 0
    },
    {
      "name": "dress2_1_normals",
      "componentType": 5126,
      "count": 616,
      "min": [
        -0.9934579730033875,
        -0.9835780262947083,
        -0.9940209984779358
      ],
      "max": [
        0.9907450079917908,
        0.9800469875335693,
        0.995523989200592
      ],
      "type": "VEC3",
      "bufferView": 0,
      "byteOffset": 7392
    },
    {
      "name": "dress2_1_texcoords",
      "componentType": 5126,
      "count": 616,
      "min": [
        0.00034699999378062785,
        0.5002909898757935
      ],
      "max": [
        0.9995489716529846,
        0.9997929930686951
      ],
      "type": "VEC2",
      "bufferView": 1,
      "byteOffset": 0
    },
    {
      "name": "dress2_1_0_indices",
      "componentType": 5123,
      "count": 2976,
      "min": [
        0
      ],
      "max": [
        615
      ],
      "type": "SCALAR",
      "bufferView": 2,
      "byteOffset": 0
    }
  ],
  "asset": {
    "generator": "obj2gltf",
    "version": "2.0"
  },
  "buffers": [
    {
      "name": "dress2",
      "byteLength": 387488,
      "uri": "data:application/octet-stream;base64,"
    }
  ],
  "bufferViews": [
    {
      "name": "bufferView_0",
      "buffer": 0,
      "byteLength": 14784,
      "byteOffset": 0,
      "byteStride": 12,
      "target": 34962
    },
    {
      "name": "bufferView_1",
      "buffer": 0,
      "byteLength": 4928,
      "byteOffset": 14784,
      "byteStride": 8,
      "target": 34962
    },
    {
      "name": "bufferView_2",
      "buffer": 0,
      "byteLength": 5952,
      "byteOffset": 19712,
      "target": 34963
    },
    {
      "buffer": 0,
      "byteOffset": 25664,
      "byteLength": 361824
    }
  ],
  "images": [
    {
      "name": "dress2_dress2",
      "mimeType": "image/png",
      "bufferView": 3
    }
  ],
  "materials": [
    {
      "name": "dress2_mtl",
      "pbrMetallicRoughness": {
        "baseColorTexture": {
          "index": 0
        },
        "baseColorFactor": [
          1,
          1,
          1,
          1
        ],
        "metallicFactor": 0,
        "roughnessFactor": 1
      },
      "emissiveFactor": [
        0,
        0,
        0
      ],
      "alphaMode": "OPAQUE",
      "doubleSided": false
    }
  ],
  "meshes": [
    {
      "name": "dress2_1",
      "primitives": [
        {
          "attributes": {
            "POSITION": 0,
            "NORMAL": 1,
            "TEXCOORD_0": 2
          },
          "indices": 3,
          "material": 0,
          "mode": 4
        }
      ]
    }
  ],
  "nodes": [
    {
      "name": "dress2",
      "mesh": 0
    }
  ],
  "samplers": [
    {
      "magFilter": 9729,
      "minFilter": 9986,
      "wrapS": 10497,
      "wrapT": 10497
    }
  ],
  "scene": 0,
  "scenes": [
    {
      "nodes": [
        0
      ]
    }
  ],
  "textures": [
    {
      "name": "dress2_dress2",
      "sampler": 0,
      "source": 0
    }
  ]
}
