{
  "accessors": [
    {
      "name": "Layer_1_1_positions",
      "componentType": 5126,
      "count": 19520,
      "min": [
        4.675933837890625,
        -82.6581802368164,
        -32.62355422973633
      ],
      "max": [
        45.85897445678711,
        -37.74386978149414,
        10.847803115844727
      ],
      "type": "VEC3",
      "bufferView": 0,
      "byteOffset": 0
    },
    {
      "name": "Layer_1_1_normals",
      "componentType": 5126,
      "count": 19520,
      "min": [
        -1,
        -0.9998779892921448,
        -0.9999549984931946
      ],
      "max": [
        0.9998999834060669,
        0.9998649954795837,
        0.9999750256538391
      ],
      "type": "VEC3",
      "bufferView": 0,
      "byteOffset": 234240
    },
    {
      "name": "Layer_1_1_texcoords",
      "componentType": 5126,
      "count": 19520,
      "min": [
        0.000011000000085914508,
        0.11117199808359146
      ],
      "max": [
        0.9999740123748779,
        0.9999470114707947
      ],
      "type": "VEC2",
      "bufferView": 1,
      "byteOffset": 0
    },
    {
      "name": "Layer_1_1_0_indices",
      "componentType": 5123,
      "count": 100098,
      "min": [
        0
      ],
      "max": [
        19519
      ],
      "type": "SCALAR",
      "bufferView": 2,
      "byteOffset": 0
    }
  ],
  "asset": {
    "generator": "obj2gltf",
    "version": "2.0"
  },
  "buffers": [
    {
      "name": "princess1",
      "byteLength": 1515608,
      "uri": "data:application/octet-stream;base64,"
    }
  ],
  "bufferViews": [
    {
      "name": "bufferView_0",
      "buffer": 0,
      "byteLength": 468480,
      "byteOffset": 0,
      "byteStride": 12,
      "target": 34962
    },
    {
      "name": "bufferView_1",
      "buffer": 0,
      "byteLength": 156160,
      "byteOffset": 468480,
      "byteStride": 8,
      "target": 34962
    },
    {
      "name": "bufferView_2",
      "buffer": 0,
      "byteLength": 200196,
      "byteOffset": 624640,
      "target": 34963
    },
    {
      "buffer": 0,
      "byteOffset": 824836,
      "byteLength": 690770
    }
  ],
  "images": [
    {
      "name": "princess1_Layer_1",
      "mimeType": "image/png",
      "bufferView": 3
    }
  ],
  "materials": [
    {
      "name": "Layer_1_mtl",
      "pbrMetallicRoughness": {
        "baseColorTexture": {
          "index": 0
        },
        "baseColorFactor": [
          1,
          1,
          1,
          1
        ],
        "metallicFactor": 0,
        "roughnessFactor": 1
      },
      "emissiveFactor": [
        0,
        0,
        0
      ],
      "alphaMode": "OPAQUE",
      "doubleSided": false
    }
  ],
  "meshes": [
    {
      "name": "Layer_1_1",
      "primitives": [
        {
          "attributes": {
            "POSITION": 0,
            "NORMAL": 1,
            "TEXCOORD_0": 2
          },
          "indices": 3,
          "material": 0,
          "mode": 4
        }
      ]
    }
  ],
  "nodes": [
    {
      "name": "Layer_1",
      "mesh": 0
    }
  ],
  "samplers": [
    {
      "magFilter": 9729,
      "minFilter": 9986,
      "wrapS": 10497,
      "wrapT": 10497
    }
  ],
  "scene": 0,
  "scenes": [
    {
      "nodes": [
        0
      ]
    }
  ],
  "textures": [
    {
      "name": "princess1_Layer_1",
      "sampler": 0,
      "source": 0
    }
  ]
}
