{
  "accessors": [
    {
      "name": "Layer_8_1_positions",
      "componentType": 5126,
      "count": 4378,
      "min": [
        -37.48725509643555,
        -105.53605651855469,
        -96.4652328491211
      ],
      "max": [
        -4.464327812194824,
        -74.45186614990234,
        -71.78466033935547
      ],
      "type": "VEC3",
      "bufferView": 0,
      "byteOffset": 0
    },
    {
      "name": "Layer_8_1_normals",
      "componentType": 5126,
      "count": 4378,
      "min": [
        -0.9981200098991394,
        -0.9969220161437988,
        -0.9996439814567566
      ],
      "max": [
        0.9989650249481201,
        0.9998679757118225,
        0.9998769760131836
      ],
      "type": "VEC3",
      "bufferView": 0,
      "byteOffset": 52536
    },
    {
      "name": "Layer_8_1_texcoords",
      "componentType": 5126,
      "count": 4378,
      "min": [
        0.00020300000323913991,
        0.000050999999075429514
      ],
      "max": [
        0.9997410178184509,
        0.9998289942741394
      ],
      "type": "VEC2",
      "bufferView": 1,
      "byteOffset": 0
    },
    {
      "name": "Layer_8_1_0_indices",
      "componentType": 5123,
      "count": 22284,
      "min": [
        0
      ],
      "max": [
        4377
      ],
      "type": "SCALAR",
      "bufferView": 2,
      "byteOffset": 0
    }
  ],
  "asset": {
    "generator": "obj2gltf",
    "version": "2.0"
  },
  "buffers": [
    {
      "name": "princess1-left",
      "byteLength": 804484,
      "uri": "data:application/octet-stream;base64,"
    }
  ],
  "bufferViews": [
    {
      "name": "bufferView_0",
      "buffer": 0,
      "byteLength": 105072,
      "byteOffset": 0,
      "byteStride": 12,
      "target": 34962
    },
    {
      "name": "bufferView_1",
      "buffer": 0,
      "byteLength": 35024,
      "byteOffset": 105072,
      "byteStride": 8,
      "target": 34962
    },
    {
      "name": "bufferView_2",
      "buffer": 0,
      "byteLength": 44568,
      "byteOffset": 140096,
      "target": 34963
    },
    {
      "buffer": 0,
      "byteOffset": 184664,
      "byteLength": 619819
    }
  ],
  "images": [
    {
      "name": "princess1-left_Layer_8",
      "mimeType": "image/png",
      "bufferView": 3
    }
  ],
  "materials": [
    {
      "name": "Layer_8_mtl",
      "pbrMetallicRoughness": {
        "baseColorTexture": {
          "index": 0
        },
        "baseColorFactor": [
          1,
          1,
          1,
          1
        ],
        "metallicFactor": 0,
        "roughnessFactor": 1
      },
      "emissiveFactor": [
        0,
        0,
        0
      ],
      "alphaMode": "OPAQUE",
      "doubleSided": false
    }
  ],
  "meshes": [
    {
      "name": "Layer_8_1",
      "primitives": [
        {
          "attributes": {
            "POSITION": 0,
            "NORMAL": 1,
            "TEXCOORD_0": 2
          },
          "indices": 3,
          "material": 0,
          "mode": 4
        }
      ]
    }
  ],
  "nodes": [
    {
      "name": "Layer_8",
      "mesh": 0
    }
  ],
  "samplers": [
    {
      "magFilter": 9729,
      "minFilter": 9986,
      "wrapS": 10497,
      "wrapT": 10497
    }
  ],
  "scene": 0,
  "scenes": [
    {
      "nodes": [
        0
      ]
    }
  ],
  "textures": [
    {
      "name": "princess1-left_Layer_8",
      "sampler": 0,
      "source": 0
    }
  ]
}
