{
  "accessors": [
    {
      "name": "Layer_7_1_positions",
      "componentType": 5126,
      "count": 4394,
      "min": [
        -6.4711689949035645,
        -154.40060424804688,
        -89.45880889892578
      ],
      "max": [
        21.082565307617188,
        -116.26118469238281,
        -64.11894226074219
      ],
      "type": "VEC3",
      "bufferView": 0,
      "byteOffset": 0
    },
    {
      "name": "Layer_7_1_normals",
      "componentType": 5126,
      "count": 4394,
      "min": [
        -0.9993399977684021,
        -0.999547004699707,
        -0.9999439716339111
      ],
      "max": [
        0.9998279809951782,
        0.9997100234031677,
        0.999862015247345
      ],
      "type": "VEC3",
      "bufferView": 0,
      "byteOffset": 52728
    },
    {
      "name": "Layer_7_1_texcoords",
      "componentType": 5126,
      "count": 4394,
      "min": [
        0.0001320000010309741,
        0.00007300000288523734
      ],
      "max": [
        0.9999679923057556,
        0.9999150037765503
      ],
      "type": "VEC2",
      "bufferView": 1,
      "byteOffset": 0
    },
    {
      "name": "Layer_7_1_0_indices",
      "componentType": 5123,
      "count": 22284,
      "min": [
        0
      ],
      "max": [
        4393
      ],
      "type": "SCALAR",
      "bufferView": 2,
      "byteOffset": 0
    }
  ],
  "asset": {
    "generator": "obj2gltf",
    "version": "2.0"
  },
  "buffers": [
    {
      "name": "princess1-right",
      "byteLength": 866160,
      "uri": "data:application/octet-stream;base64,"
    }
  ],
  "bufferViews": [
    {
      "name": "bufferView_0",
      "buffer": 0,
      "byteLength": 105456,
      "byteOffset": 0,
      "byteStride": 12,
      "target": 34962
    },
    {
      "name": "bufferView_1",
      "buffer": 0,
      "byteLength": 35152,
      "byteOffset": 105456,
      "byteStride": 8,
      "target": 34962
    },
    {
      "name": "bufferView_2",
      "buffer": 0,
      "byteLength": 44568,
      "byteOffset": 140608,
      "target": 34963
    },
    {
      "buffer": 0,
      "byteOffset": 185176,
      "byteLength": 680984
    }
  ],
  "images": [
    {
      "name": "princess1-right_Layer_7",
      "mimeType": "image/png",
      "bufferView": 3
    }
  ],
  "materials": [
    {
      "name": "Layer_7_mtl",
      "pbrMetallicRoughness": {
        "baseColorTexture": {
          "index": 0
        },
        "baseColorFactor": [
          1,
          1,
          1,
          1
        ],
        "metallicFactor": 0,
        "roughnessFactor": 1
      },
      "emissiveFactor": [
        0,
        0,
        0
      ],
      "alphaMode": "OPAQUE",
      "doubleSided": false
    }
  ],
  "meshes": [
    {
      "name": "Layer_7_1",
      "primitives": [
        {
          "attributes": {
            "POSITION": 0,
            "NORMAL": 1,
            "TEXCOORD_0": 2
          },
          "indices": 3,
          "material": 0,
          "mode": 4
        }
      ]
    }
  ],
  "nodes": [
    {
      "name": "Layer_7",
      "mesh": 0
    }
  ],
  "samplers": [
    {
      "magFilter": 9729,
      "minFilter": 9986,
      "wrapS": 10497,
      "wrapT": 10497
    }
  ],
  "scene": 0,
  "scenes": [
    {
      "nodes": [
        0
      ]
    }
  ],
  "textures": [
    {
      "name": "princess1-right_Layer_7",
      "sampler": 0,
      "source": 0
    }
  ]
}
