{
  "accessors": [
    {
      "name": "ledge_1_positions",
      "componentType": 5126,
      "count": 5942,
      "min": [
        -7.154641151428223,
        -57.26152801513672,
        -28.24311637878418
      ],
      "max": [
        31.17770004272461,
        -35.10432434082031,
        -13.864798545837402
      ],
      "type": "VEC3",
      "bufferView": 0,
      "byteOffset": 0
    },
    {
      "name": "ledge_1_normals",
      "componentType": 5126,
      "count": 5942,
      "min": [
        -0.9971550107002258,
        -0.9999200105667114,
        -0.9999729990959167
      ],
      "max": [
        0.9996740221977234,
        0.9999200105667114,
        0.9999909996986389
      ],
      "type": "VEC3",
      "bufferView": 0,
      "byteOffset": 71304
    },
    {
      "name": "ledge_1_texcoords",
      "componentType": 5126,
      "count": 5942,
      "min": [
        0.000003999999989900971,
        0.20012199878692627
      ],
      "max": [
        0.9923149943351746,
        0.9999619722366333
      ],
      "type": "VEC2",
      "bufferView": 1,
      "byteOffset": 0
    },
    {
      "name": "ledge_1_0_indices",
      "componentType": 5123,
      "count": 30804,
      "min": [
        0
      ],
      "max": [
        5941
      ],
      "type": "SCALAR",
      "bufferView": 2,
      "byteOffset": 0
    }
  ],
  "asset": {
    "generator": "obj2gltf",
    "version": "2.0"
  },
  "buffers": [
    {
      "name": "ledge",
      "byteLength": 910904,
      "uri": "data:application/octet-stream;base64,"
    }
  ],
  "bufferViews": [
    {
      "name": "bufferView_0",
      "buffer": 0,
      "byteLength": 142608,
      "byteOffset": 0,
      "byteStride": 12,
      "target": 34962
    },
    {
      "name": "bufferView_1",
      "buffer": 0,
      "byteLength": 47536,
      "byteOffset": 142608,
      "byteStride": 8,
      "target": 34962
    },
    {
      "name": "bufferView_2",
      "buffer": 0,
      "byteLength": 61608,
      "byteOffset": 190144,
      "target": 34963
    },
    {
      "buffer": 0,
      "byteOffset": 251752,
      "byteLength": 659150
    }
  ],
  "images": [
    {
      "name": "ledge_ledge",
      "mimeType": "image/png",
      "bufferView": 3
    }
  ],
  "materials": [
    {
      "name": "ledge_mtl",
      "pbrMetallicRoughness": {
        "baseColorTexture": {
          "index": 0
        },
        "baseColorFactor": [
          1,
          1,
          1,
          1
        ],
        "metallicFactor": 0,
        "roughnessFactor": 1
      },
      "emissiveFactor": [
        0,
        0,
        0
      ],
      "alphaMode": "OPAQUE",
      "doubleSided": false
    }
  ],
  "meshes": [
    {
      "name": "ledge_1",
      "primitives": [
        {
          "attributes": {
            "POSITION": 0,
            "NORMAL": 1,
            "TEXCOORD_0": 2
          },
          "indices": 3,
          "material": 0,
          "mode": 4
        }
      ]
    }
  ],
  "nodes": [
    {
      "name": "ledge",
      "mesh": 0
    }
  ],
  "samplers": [
    {
      "magFilter": 9729,
      "minFilter": 9986,
      "wrapS": 10497,
      "wrapT": 10497
    }
  ],
  "scene": 0,
  "scenes": [
    {
      "nodes": [
        0
      ]
    }
  ],
  "textures": [
    {
      "name": "ledge_ledge",
      "sampler": 0,
      "source": 0
    }
  ]
}
