{
  "accessors": [
    {
      "name": "mirror_1_positions",
      "componentType": 5126,
      "count": 1988,
      "min": [
        -20.42754364013672,
        -123.54666900634766,
        -30.023265838623047
      ],
      "max": [
        -11.585265159606934,
        -94.68559265136719,
        20.519304275512695
      ],
      "type": "VEC3",
      "bufferView": 0,
      "byteOffset": 0
    },
    {
      "name": "mirror_1_normals",
      "componentType": 5126,
      "count": 1988,
      "min": [
        -0.9999179840087891,
        -0.9906719923019409,
        -0.9790499806404114
      ],
      "max": [
        0.9998660087585449,
        0.9951120018959045,
        0.9955019950866699
      ],
      "type": "VEC3",
      "bufferView": 0,
      "byteOffset": 23856
    },
    {
      "name": "mirror_1_texcoords",
      "componentType": 5126,
      "count": 1988,
      "min": [
        0.00025499999173916876,
        0.00014899999951012433
      ],
      "max": [
        0.9388899803161621,
        0.9999759793281555
      ],
      "type": "VEC2",
      "bufferView": 1,
      "byteOffset": 0
    },
    {
      "name": "mirror_1_0_indices",
      "componentType": 5123,
      "count": 9684,
      "min": [
        0
      ],
      "max": [
        1987
      ],
      "type": "SCALAR",
      "bufferView": 2,
      "byteOffset": 0
    }
  ],
  "asset": {
    "generator": "obj2gltf",
    "version": "2.0"
  },
  "buffers": [
    {
      "name": "mirror",
      "byteLength": 802528,
      "uri": "data:application/octet-stream;base64,"
    }
  ],
  "bufferViews": [
    {
      "name": "bufferView_0",
      "buffer": 0,
      "byteLength": 47712,
      "byteOffset": 0,
      "byteStride": 12,
      "target": 34962
    },
    {
      "name": "bufferView_1",
      "buffer": 0,
      "byteLength": 15904,
      "byteOffset": 47712,
      "byteStride": 8,
      "target": 34962
    },
    {
      "name": "bufferView_2",
      "buffer": 0,
      "byteLength": 19368,
      "byteOffset": 63616,
      "target": 34963
    },
    {
      "buffer": 0,
      "byteOffset": 82984,
      "byteLength": 719543
    }
  ],
  "images": [
    {
      "name": "mirror_mirror",
      "mimeType": "image/png",
      "bufferView": 3
    }
  ],
  "materials": [
    {
      "name": "mirror_mtl",
      "pbrMetallicRoughness": {
        "baseColorTexture": {
          "index": 0
        },
        "baseColorFactor": [
          1,
          1,
          1,
          1
        ],
        "metallicFactor": 0,
        "roughnessFactor": 1
      },
      "emissiveFactor": [
        0,
        0,
        0
      ],
      "alphaMode": "OPAQUE",
      "doubleSided": false
    }
  ],
  "meshes": [
    {
      "name": "mirror_1",
      "primitives": [
        {
          "attributes": {
            "POSITION": 0,
            "NORMAL": 1,
            "TEXCOORD_0": 2
          },
          "indices": 3,
          "material": 0,
          "mode": 4
        }
      ]
    }
  ],
  "nodes": [
    {
      "name": "mirror",
      "mesh": 0
    }
  ],
  "samplers": [
    {
      "magFilter": 9729,
      "minFilter": 9986,
      "wrapS": 10497,
      "wrapT": 10497
    }
  ],
  "scene": 0,
  "scenes": [
    {
      "nodes": [
        0
      ]
    }
  ],
  "textures": [
    {
      "name": "mirror_mirror",
      "sampler": 0,
      "source": 0
    }
  ]
}
