{
  "accessors": [
    {
      "name": "door_1_positions",
      "componentType": 5126,
      "count": 17345,
      "min": [
        64.41242980957031,
        -129.853759765625,
        -36.848854064941406
      ],
      "max": [
        96.42828369140625,
        -92.66053771972656,
        31.213420867919922
      ],
      "type": "VEC3",
      "bufferView": 0,
      "byteOffset": 0
    },
    {
      "name": "door_1_normals",
      "componentType": 5126,
      "count": 17345,
      "min": [
        -0.9997599720954895,
        -0.999521017074585,
        -0.9999989867210388
      ],
      "max": [
        0.9999989867210388,
        0.9999920129776001,
        0.9999909996986389
      ],
      "type": "VEC3",
      "bufferView": 0,
      "byteOffset": 208140
    },
    {
      "name": "door_1_texcoords",
      "componentType": 5126,
      "count": 17345,
      "min": [
        0.00010099999781232327,
        0.00008600000001024455
      ],
      "max": [
        0.9999210238456726,
        0.9999880194664001
      ],
      "type": "VEC2",
      "bufferView": 1,
      "byteOffset": 0
    },
    {
      "name": "door_1_0_indices",
      "componentType": 5123,
      "count": 87660,
      "min": [
        0
      ],
      "max": [
        17344
      ],
      "type": "SCALAR",
      "bufferView": 2,
      "byteOffset": 0
    }
  ],
  "asset": {
    "generator": "obj2gltf",
    "version": "2.0"
  },
  "buffers": [
    {
      "name": "princess-door",
      "byteLength": 1172392,
      "uri": "data:application/octet-stream;base64,"
    }
  ],
  "bufferViews": [
    {
      "name": "bufferView_0",
      "buffer": 0,
      "byteLength": 416280,
      "byteOffset": 0,
      "byteStride": 12,
      "target": 34962
    },
    {
      "name": "bufferView_1",
      "buffer": 0,
      "byteLength": 138760,
      "byteOffset": 416280,
      "byteStride": 8,
      "target": 34962
    },
    {
      "name": "bufferView_2",
      "buffer": 0,
      "byteLength": 175320,
      "byteOffset": 555040,
      "target": 34963
    },
    {
      "buffer": 0,
      "byteOffset": 730360,
      "byteLength": 442031
    }
  ],
  "images": [
    {
      "name": "princess-door_door",
      "mimeType": "image/png",
      "bufferView": 3
    }
  ],
  "materials": [
    {
      "name": "door_mtl",
      "pbrMetallicRoughness": {
        "baseColorTexture": {
          "index": 0
        },
        "baseColorFactor": [
          1,
          1,
          1,
          1
        ],
        "metallicFactor": 0,
        "roughnessFactor": 1
      },
      "emissiveFactor": [
        0,
        0,
        0
      ],
      "alphaMode": "OPAQUE",
      "doubleSided": false
    }
  ],
  "meshes": [
    {
      "name": "door_1",
      "primitives": [
        {
          "attributes": {
            "POSITION": 0,
            "NORMAL": 1,
            "TEXCOORD_0": 2
          },
          "indices": 3,
          "material": 0,
          "mode": 4
        }
      ]
    }
  ],
  "nodes": [
    {
      "name": "door",
      "mesh": 0
    }
  ],
  "samplers": [
    {
      "magFilter": 9729,
      "minFilter": 9986,
      "wrapS": 10497,
      "wrapT": 10497
    }
  ],
  "scene": 0,
  "scenes": [
    {
      "nodes": [
        0
      ]
    }
  ],
  "textures": [
    {
      "name": "princess-door_door",
      "sampler": 0,
      "source": 0
    }
  ]
}
