{
  "accessors": [
    {
      "name": "stool_1_positions",
      "componentType": 5126,
      "count": 2601,
      "min": [
        12.12648868560791,
        -105.07850646972656,
        -45.800209045410156
      ],
      "max": [
        26.329904556274414,
        -91.07840728759766,
        -17.724512100219727
      ],
      "type": "VEC3",
      "bufferView": 0,
      "byteOffset": 0
    },
    {
      "name": "stool_1_normals",
      "componentType": 5126,
      "count": 2601,
      "min": [
        -0.999845027923584,
        -0.9999480247497559,
        -0.9992430210113525
      ],
      "max": [
        0.999862015247345,
        0.9999849796295166,
        0.9999570250511169
      ],
      "type": "VEC3",
      "bufferView": 0,
      "byteOffset": 31212
    },
    {
      "name": "stool_1_texcoords",
      "componentType": 5126,
      "count": 2601,
      "min": [
        0.000195999993593432,
        0.00017299999308306724
      ],
      "max": [
        0.9508870244026184,
        0.9999600052833557
      ],
      "type": "VEC2",
      "bufferView": 1,
      "byteOffset": 0
    },
    {
      "name": "stool_1_0_indices",
      "componentType": 5123,
      "count": 12216,
      "min": [
        0
      ],
      "max": [
        2600
      ],
      "type": "SCALAR",
      "bufferView": 2,
      "byteOffset": 0
    }
  ],
  "asset": {
    "generator": "obj2gltf",
    "version": "2.0"
  },
  "buffers": [
    {
      "name": "stool",
      "byteLength": 761216,
      "uri": "data:application/octet-stream;base64,"
    }
  ],
  "bufferViews": [
    {
      "name": "bufferView_0",
      "buffer": 0,
      "byteLength": 62424,
      "byteOffset": 0,
      "byteStride": 12,
      "target": 34962
    },
    {
      "name": "bufferView_1",
      "buffer": 0,
      "byteLength": 20808,
      "byteOffset": 62424,
      "byteStride": 8,
      "target": 34962
    },
    {
      "name": "bufferView_2",
      "buffer": 0,
      "byteLength": 24432,
      "byteOffset": 83232,
      "target": 34963
    },
    {
      "buffer": 0,
      "byteOffset": 107664,
      "byteLength": 653549
    }
  ],
  "images": [
    {
      "name": "stool_stool",
      "mimeType": "image/png",
      "bufferView": 3
    }
  ],
  "materials": [
    {
      "name": "stool_mtl",
      "pbrMetallicRoughness": {
        "baseColorTexture": {
          "index": 0
        },
        "baseColorFactor": [
          1,
          1,
          1,
          1
        ],
        "metallicFactor": 0,
        "roughnessFactor": 1
      },
      "emissiveFactor": [
        0,
        0,
        0
      ],
      "alphaMode": "OPAQUE",
      "doubleSided": false
    }
  ],
  "meshes": [
    {
      "name": "stool_1",
      "primitives": [
        {
          "attributes": {
            "POSITION": 0,
            "NORMAL": 1,
            "TEXCOORD_0": 2
          },
          "indices": 3,
          "material": 0,
          "mode": 4
        }
      ]
    }
  ],
  "nodes": [
    {
      "name": "stool",
      "mesh": 0
    }
  ],
  "samplers": [
    {
      "magFilter": 9729,
      "minFilter": 9986,
      "wrapS": 10497,
      "wrapT": 10497
    }
  ],
  "scene": 0,
  "scenes": [
    {
      "nodes": [
        0
      ]
    }
  ],
  "textures": [
    {
      "name": "stool_stool",
      "sampler": 0,
      "source": 0
    }
  ]
}
