{
  "accessors": [
    {
      "name": "Layer_2_1_positions",
      "componentType": 5126,
      "count": 15523,
      "min": [
        -31.286331176757812,
        -62.08839416503906,
        -49.50570297241211
      ],
      "max": [
        25.51770782470703,
        -13.12826156616211,
        -8.914148330688477
      ],
      "type": "VEC3",
      "bufferView": 0,
      "byteOffset": 0
    },
    {
      "name": "Layer_2_1_normals",
      "componentType": 5126,
      "count": 15523,
      "min": [
        -0.9999399781227112,
        -0.9999930262565613,
        -0.9998970031738281
      ],
      "max": [
        0.9999989867210388,
        0.9999989867210388,
        0.9999930262565613
      ],
      "type": "VEC3",
      "bufferView": 0,
      "byteOffset": 186276
    },
    {
      "name": "Layer_2_1_texcoords",
      "componentType": 5126,
      "count": 15523,
      "min": [
        0.00006800000119255856,
        0.007000999990850687
      ],
      "max": [
        0.9998279809951782,
        0.9999319911003113
      ],
      "type": "VEC2",
      "bufferView": 1,
      "byteOffset": 0
    },
    {
      "name": "Layer_2_1_0_indices",
      "componentType": 5123,
      "count": 78348,
      "min": [
        0
      ],
      "max": [
        15522
      ],
      "type": "SCALAR",
      "bufferView": 2,
      "byteOffset": 0
    }
  ],
  "asset": {
    "generator": "obj2gltf",
    "version": "2.0"
  },
  "buffers": [
    {
      "name": "glass-door",
      "byteLength": 1415828,
      "uri": "data:application/octet-stream;base64,"
    }
  ],
  "bufferViews": [
    {
      "name": "bufferView_0",
      "buffer": 0,
      "byteLength": 372552,
      "byteOffset": 0,
      "byteStride": 12,
      "target": 34962
    },
    {
      "name": "bufferView_1",
      "buffer": 0,
      "byteLength": 124184,
      "byteOffset": 372552,
      "byteStride": 8,
      "target": 34962
    },
    {
      "name": "bufferView_2",
      "buffer": 0,
      "byteLength": 156696,
      "byteOffset": 496736,
      "target": 34963
    },
    {
      "buffer": 0,
      "byteOffset": 653432,
      "byteLength": 762396
    }
  ],
  "images": [
    {
      "name": "glass-door_Layer_2",
      "mimeType": "image/png",
      "bufferView": 3
    }
  ],
  "materials": [
    {
      "name": "Layer_2_mtl",
      "pbrMetallicRoughness": {
        "baseColorTexture": {
          "index": 0
        },
        "baseColorFactor": [
          1,
          1,
          1,
          1
        ],
        "metallicFactor": 0,
        "roughnessFactor": 1
      },
      "emissiveFactor": [
        0,
        0,
        0
      ],
      "alphaMode": "OPAQUE",
      "doubleSided": false
    }
  ],
  "meshes": [
    {
      "name": "Layer_2_1",
      "primitives": [
        {
          "attributes": {
            "POSITION": 0,
            "NORMAL": 1,
            "TEXCOORD_0": 2
          },
          "indices": 3,
          "material": 0,
          "mode": 4
        }
      ]
    }
  ],
  "nodes": [
    {
      "name": "Layer_2",
      "mesh": 0
    }
  ],
  "samplers": [
    {
      "magFilter": 9729,
      "minFilter": 9986,
      "wrapS": 10497,
      "wrapT": 10497
    }
  ],
  "scene": 0,
  "scenes": [
    {
      "nodes": [
        0
      ]
    }
  ],
  "textures": [
    {
      "name": "glass-door_Layer_2",
      "sampler": 0,
      "source": 0
    }
  ]
}
