{
  "accessors": [
    {
      "name": "Layer_1_1_positions",
      "componentType": 5126,
      "count": 1223,
      "min": [
        19.33566665649414,
        -87.94921875,
        18.3214054107666
      ],
      "max": [
        31.050373077392578,
        -68.11499786376953,
        35.53025436401367
      ],
      "type": "VEC3",
      "bufferView": 0,
      "byteOffset": 0
    },
    {
      "name": "Layer_1_1_normals",
      "componentType": 5126,
      "count": 1223,
      "min": [
        -0.9972900152206421,
        -0.9879720211029053,
        -0.9885029792785645
      ],
      "max": [
        0.9982060194015503,
        0.9923840165138245,
        0.9995869994163513
      ],
      "type": "VEC3",
      "bufferView": 0,
      "byteOffset": 14676
    },
    {
      "name": "Layer_1_1_texcoords",
      "componentType": 5126,
      "count": 1223,
      "min": [
        0.000006000000212225132,
        0.00018099999579135329
      ],
      "max": [
        0.9236680269241333,
        0.9997479915618896
      ],
      "type": "VEC2",
      "bufferView": 1,
      "byteOffset": 0
    },
    {
      "name": "Layer_1_1_0_indices",
      "componentType": 5123,
      "count": 6192,
      "min": [
        0
      ],
      "max": [
        1222
      ],
      "type": "SCALAR",
      "bufferView": 2,
      "byteOffset": 0
    }
  ],
  "asset": {
    "generator": "obj2gltf",
    "version": "2.0"
  },
  "buffers": [
    {
      "name": "rachel-right",
      "byteLength": 599528,
      "uri": "data:application/octet-stream;base64,"
    }
  ],
  "bufferViews": [
    {
      "name": "bufferView_0",
      "buffer": 0,
      "byteLength": 29352,
      "byteOffset": 0,
      "byteStride": 12,
      "target": 34962
    },
    {
      "name": "bufferView_1",
      "buffer": 0,
      "byteLength": 9784,
      "byteOffset": 29352,
      "byteStride": 8,
      "target": 34962
    },
    {
      "name": "bufferView_2",
      "buffer": 0,
      "byteLength": 12384,
      "byteOffset": 39136,
      "target": 34963
    },
    {
      "buffer": 0,
      "byteOffset": 51520,
      "byteLength": 548008
    }
  ],
  "images": [
    {
      "name": "rachel-right",
      "mimeType": "image/png",
      "bufferView": 3
    }
  ],
  "materials": [
    {
      "name": "Layer_1_mtl",
      "pbrMetallicRoughness": {
        "baseColorTexture": {
          "index": 0
        },
        "baseColorFactor": [
          1,
          1,
          1,
          1
        ],
        "metallicFactor": 0,
        "roughnessFactor": 1
      },
      "emissiveFactor": [
        0,
        0,
        0
      ],
      "alphaMode": "OPAQUE",
      "doubleSided": false
    }
  ],
  "meshes": [
    {
      "name": "Layer_1_1",
      "primitives": [
        {
          "attributes": {
            "POSITION": 0,
            "NORMAL": 1,
            "TEXCOORD_0": 2
          },
          "indices": 3,
          "material": 0,
          "mode": 4
        }
      ]
    }
  ],
  "nodes": [
    {
      "name": "Layer_1",
      "mesh": 0
    }
  ],
  "samplers": [
    {
      "magFilter": 9729,
      "minFilter": 9986,
      "wrapS": 10497,
      "wrapT": 10497
    }
  ],
  "scene": 0,
  "scenes": [
    {
      "nodes": [
        0
      ]
    }
  ],
  "textures": [
    {
      "name": "rachel-right",
      "sampler": 0,
      "source": 0
    }
  ]
}
