{
  "accessors": [
    {
      "name": "Layer_1_1_positions",
      "componentType": 5126,
      "count": 19653,
      "min": [
        -49.81985092163086,
        -57.90960693359375,
        -69.53510284423828
      ],
      "max": [
        -7.814040184020996,
        -9.093252182006836,
        -19.906892776489258
      ],
      "type": "VEC3",
      "bufferView": 0,
      "byteOffset": 0
    },
    {
      "name": "Layer_1_1_normals",
      "componentType": 5126,
      "count": 19653,
      "min": [
        -0.9999229907989502,
        -0.9999840259552002,
        -0.9999979734420776
      ],
      "max": [
        0.9999939799308777,
        0.9998700022697449,
        0.999770998954773
      ],
      "type": "VEC3",
      "bufferView": 0,
      "byteOffset": 235836
    },
    {
      "name": "Layer_1_1_texcoords",
      "componentType": 5126,
      "count": 19653,
      "min": [
        0.00006299999949987978,
        9.999999974752427e-7
      ],
      "max": [
        0.9999880194664001,
        0.9999459981918335
      ],
      "type": "VEC2",
      "bufferView": 1,
      "byteOffset": 0
    },
    {
      "name": "Layer_1_1_0_indices",
      "componentType": 5123,
      "count": 100860,
      "min": [
        0
      ],
      "max": [
        19652
      ],
      "type": "SCALAR",
      "bufferView": 2,
      "byteOffset": 0
    }
  ],
  "asset": {
    "generator": "obj2gltf",
    "version": "2.0"
  },
  "buffers": [
    {
      "name": "rachel",
      "byteLength": 1639656,
      "uri": "data:application/octet-stream;base64,"
    }
  ],
  "bufferViews": [
    {
      "name": "bufferView_0",
      "buffer": 0,
      "byteLength": 471672,
      "byteOffset": 0,
      "byteStride": 12,
      "target": 34962
    },
    {
      "name": "bufferView_1",
      "buffer": 0,
      "byteLength": 157224,
      "byteOffset": 471672,
      "byteStride": 8,
      "target": 34962
    },
    {
      "name": "bufferView_2",
      "buffer": 0,
      "byteLength": 201720,
      "byteOffset": 628896,
      "target": 34963
    },
    {
      "buffer": 0,
      "byteOffset": 830616,
      "byteLength": 809040
    }
  ],
  "images": [
    {
      "name": "rachel_Layer_1",
      "mimeType": "image/png",
      "bufferView": 3
    }
  ],
  "materials": [
    {
      "name": "Layer_1_mtl",
      "pbrMetallicRoughness": {
        "baseColorTexture": {
          "index": 0
        },
        "baseColorFactor": [
          1,
          1,
          1,
          1
        ],
        "metallicFactor": 0,
        "roughnessFactor": 1
      },
      "emissiveFactor": [
        0,
        0,
        0
      ],
      "alphaMode": "OPAQUE",
      "doubleSided": false
    }
  ],
  "meshes": [
    {
      "name": "Layer_1_1",
      "primitives": [
        {
          "attributes": {
            "POSITION": 0,
            "NORMAL": 1,
            "TEXCOORD_0": 2
          },
          "indices": 3,
          "material": 0,
          "mode": 4
        }
      ]
    }
  ],
  "nodes": [
    {
      "name": "Layer_1",
      "mesh": 0
    }
  ],
  "samplers": [
    {
      "magFilter": 9729,
      "minFilter": 9986,
      "wrapS": 10497,
      "wrapT": 10497
    }
  ],
  "scene": 0,
  "scenes": [
    {
      "nodes": [
        0
      ]
    }
  ],
  "textures": [
    {
      "name": "rachel_Layer_1",
      "sampler": 0,
      "source": 0
    }
  ]
}
