{
  "accessors": [
    {
      "name": "Layer_1_1_positions",
      "componentType": 5126,
      "count": 1235,
      "min": [
        15.706050872802734,
        -87.09101104736328,
        22.47429656982422
      ],
      "max": [
        26.986011505126953,
        -68.04955291748047,
        41.8687744140625
      ],
      "type": "VEC3",
      "bufferView": 0,
      "byteOffset": 0
    },
    {
      "name": "Layer_1_1_normals",
      "componentType": 5126,
      "count": 1235,
      "min": [
        -0.9999560117721558,
        -0.9936130046844482,
        -0.9880300164222717
      ],
      "max": [
        0.9889929890632629,
        0.9899579882621765,
        0.9945399761199951
      ],
      "type": "VEC3",
      "bufferView": 0,
      "byteOffset": 14820
    },
    {
      "name": "Layer_1_1_texcoords",
      "componentType": 5126,
      "count": 1235,
      "min": [
        0.00008399999933317304,
        0.00021899999410379678
      ],
      "max": [
        0.9646009802818298,
        0.9998549818992615
      ],
      "type": "VEC2",
      "bufferView": 1,
      "byteOffset": 0
    },
    {
      "name": "Layer_1_1_0_indices",
      "componentType": 5123,
      "count": 6192,
      "min": [
        0
      ],
      "max": [
        1234
      ],
      "type": "SCALAR",
      "bufferView": 2,
      "byteOffset": 0
    }
  ],
  "asset": {
    "generator": "obj2gltf",
    "version": "2.0"
  },
  "buffers": [
    {
      "name": "left-hand",
      "byteLength": 653056,
      "uri": "data:application/octet-stream;base64,"
    }
  ],
  "bufferViews": [
    {
      "name": "bufferView_0",
      "buffer": 0,
      "byteLength": 29640,
      "byteOffset": 0,
      "byteStride": 12,
      "target": 34962
    },
    {
      "name": "bufferView_1",
      "buffer": 0,
      "byteLength": 9880,
      "byteOffset": 29640,
      "byteStride": 8,
      "target": 34962
    },
    {
      "name": "bufferView_2",
      "buffer": 0,
      "byteLength": 12384,
      "byteOffset": 39520,
      "target": 34963
    },
    {
      "buffer": 0,
      "byteOffset": 51904,
      "byteLength": 601149
    }
  ],
  "images": [
    {
      "name": "left-hand_Layer_1",
      "mimeType": "image/png",
      "bufferView": 3
    }
  ],
  "materials": [
    {
      "name": "Layer_1_mtl",
      "pbrMetallicRoughness": {
        "baseColorTexture": {
          "index": 0
        },
        "baseColorFactor": [
          1,
          1,
          1,
          1
        ],
        "metallicFactor": 0,
        "roughnessFactor": 1
      },
      "emissiveFactor": [
        0,
        0,
        0
      ],
      "alphaMode": "OPAQUE",
      "doubleSided": false
    }
  ],
  "meshes": [
    {
      "name": "Layer_1_1",
      "primitives": [
        {
          "attributes": {
            "POSITION": 0,
            "NORMAL": 1,
            "TEXCOORD_0": 2
          },
          "indices": 3,
          "material": 0,
          "mode": 4
        }
      ]
    }
  ],
  "nodes": [
    {
      "name": "Layer_1",
      "mesh": 0
    }
  ],
  "samplers": [
    {
      "magFilter": 9729,
      "minFilter": 9986,
      "wrapS": 10497,
      "wrapT": 10497
    }
  ],
  "scene": 0,
  "scenes": [
    {
      "nodes": [
        0
      ]
    }
  ],
  "textures": [
    {
      "name": "left-hand_Layer_1",
      "sampler": 0,
      "source": 0
    }
  ]
}
