{
  "accessors": [
    {
      "name": "Layer_1_1_positions",
      "componentType": 5126,
      "count": 8359,
      "min": [
        -2.4890570640563965,
        -157.11607360839844,
        -1.115164041519165
      ],
      "max": [
        41.72832489013672,
        -112.31172180175781,
        22.88111114501953
      ],
      "type": "VEC3",
      "bufferView": 0,
      "byteOffset": 0
    },
    {
      "name": "Layer_1_1_normals",
      "componentType": 5126,
      "count": 8359,
      "min": [
        -1,
        -1,
        -0.9999809861183167
      ],
      "max": [
        0.9999930262565613,
        0.9999989867210388,
        0.9999989867210388
      ],
      "type": "VEC3",
      "bufferView": 0,
      "byteOffset": 100308
    },
    {
      "name": "Layer_1_1_texcoords",
      "componentType": 5126,
      "count": 8359,
      "min": [
        0.00006299999949987978,
        0.16684499382972717
      ],
      "max": [
        0.9998199939727783,
        0.9999600052833557
      ],
      "type": "VEC2",
      "bufferView": 1,
      "byteOffset": 0
    },
    {
      "name": "Layer_1_1_0_indices",
      "componentType": 5123,
      "count": 40836,
      "min": [
        0
      ],
      "max": [
        8358
      ],
      "type": "SCALAR",
      "bufferView": 2,
      "byteOffset": 0
    }
  ],
  "asset": {
    "generator": "obj2gltf",
    "version": "2.0"
  },
  "buffers": [
    {
      "name": "desk",
      "byteLength": 1029548,
      "uri": "data:application/octet-stream;base64,"
    }
  ],
  "bufferViews": [
    {
      "name": "bufferView_0",
      "buffer": 0,
      "byteLength": 200616,
      "byteOffset": 0,
      "byteStride": 12,
      "target": 34962
    },
    {
      "name": "bufferView_1",
      "buffer": 0,
      "byteLength": 66872,
      "byteOffset": 200616,
      "byteStride": 8,
      "target": 34962
    },
    {
      "name": "bufferView_2",
      "buffer": 0,
      "byteLength": 81672,
      "byteOffset": 267488,
      "target": 34963
    },
    {
      "buffer": 0,
      "byteOffset": 349160,
      "byteLength": 680387
    }
  ],
  "images": [
    {
      "name": "desk_Layer_1",
      "mimeType": "image/png",
      "bufferView": 3
    }
  ],
  "materials": [
    {
      "name": "Layer_1_mtl",
      "pbrMetallicRoughness": {
        "baseColorTexture": {
          "index": 0
        },
        "baseColorFactor": [
          1,
          1,
          1,
          1
        ],
        "metallicFactor": 0,
        "roughnessFactor": 1
      },
      "emissiveFactor": [
        0,
        0,
        0
      ],
      "alphaMode": "OPAQUE",
      "doubleSided": false
    }
  ],
  "meshes": [
    {
      "name": "Layer_1_1",
      "primitives": [
        {
          "attributes": {
            "POSITION": 0,
            "NORMAL": 1,
            "TEXCOORD_0": 2
          },
          "indices": 3,
          "material": 0,
          "mode": 4
        }
      ]
    }
  ],
  "nodes": [
    {
      "name": "Layer_1",
      "mesh": 0
    }
  ],
  "samplers": [
    {
      "magFilter": 9729,
      "minFilter": 9986,
      "wrapS": 10497,
      "wrapT": 10497
    }
  ],
  "scene": 0,
  "scenes": [
    {
      "nodes": [
        0
      ]
    }
  ],
  "textures": [
    {
      "name": "desk_Layer_1",
      "sampler": 0,
      "source": 0
    }
  ]
}
