{
  "accessors": [
    {
      "name": "Layer_1_1_positions",
      "componentType": 5126,
      "count": 1522,
      "min": [
        -8.728492736816406,
        -14.237642288208008,
        5.3369550704956055
      ],
      "max": [
        4.286847114562988,
        2.3421430587768555,
        16.385597229003906
      ],
      "type": "VEC3",
      "bufferView": 0,
      "byteOffset": 0
    },
    {
      "name": "Layer_1_1_normals",
      "componentType": 5126,
      "count": 1522,
      "min": [
        -0.9832820296287537,
        -0.98396897315979,
        -0.9987840056419373
      ],
      "max": [
        0.9992089867591858,
        0.9998000264167786,
        0.9997929930686951
      ],
      "type": "VEC3",
      "bufferView": 0,
      "byteOffset": 28404
    },
    {
      "name": "Layer_1_1_texcoords",
      "componentType": 5126,
      "count": 1522,
      "min": [
        0.0001539999939268455,
        0.333516001701355
      ],
      "max": [
        0.9796299934387207,
        0.9997580051422119
      ],
      "type": "VEC2",
      "bufferView": 1,
      "byteOffset": 0
    },
    {
      "name": "Layer_1_1_0_indices",
      "componentType": 5123,
      "count": 7920,
      "min": [
        0
      ],
      "max": [
        1521
      ],
      "type": "SCALAR",
      "bufferView": 2,
      "byteOffset": 0
    },
    {
      "name": "Layer_2_1_positions",
      "componentType": 5126,
      "count": 845,
      "min": [
        -6.958950996398926,
        -12.824073791503906,
        7.102161884307861
      ],
      "max": [
        1.7994719743728638,
        -0.9955450296401978,
        15.790733337402344
      ],
      "type": "VEC3",
      "bufferView": 0,
      "byteOffset": 18264
    },
    {
      "name": "Layer_2_1_normals",
      "componentType": 5126,
      "count": 845,
      "min": [
        -0.9995560050010681,
        -0.9986770153045654,
        -0.9990609884262085
      ],
      "max": [
        0.9996050000190735,
        0.9910659790039062,
        0.9998430013656616
      ],
      "type": "VEC3",
      "bufferView": 0,
      "byteOffset": 46668
    },
    {
      "name": "Layer_2_1_texcoords",
      "componentType": 5126,
      "count": 845,
      "min": [
        0.00018600000475998968,
        0.0001230000052601099
      ],
      "max": [
        0.9999880194664001,
        0.9999529719352722
      ],
      "type": "VEC2",
      "bufferView": 1,
      "byteOffset": 12176
    },
    {
      "name": "Layer_2_1_0_indices",
      "componentType": 5123,
      "count": 4488,
      "min": [
        0
      ],
      "max": [
        844
      ],
      "type": "SCALAR",
      "bufferView": 2,
      "byteOffset": 15840
    }
  ],
  "asset": {
    "generator": "obj2gltf",
    "version": "2.0"
  },
  "buffers": [
    {
      "name": "kay-phone",
      "byteLength": 1351664,
      "uri": "data:application/octet-stream;base64,"
    }
  ],
  "bufferViews": [
    {
      "name": "bufferView_0",
      "buffer": 0,
      "byteLength": 56808,
      "byteOffset": 0,
      "byteStride": 12,
      "target": 34962
    },
    {
      "name": "bufferView_1",
      "buffer": 0,
      "byteLength": 18936,
      "byteOffset": 56808,
      "byteStride": 8,
      "target": 34962
    },
    {
      "name": "bufferView_2",
      "buffer": 0,
      "byteLength": 24816,
      "byteOffset": 75744,
      "target": 34963
    },
    {
      "buffer": 0,
      "byteOffset": 100560,
      "byteLength": 533924
    },
    {
      "buffer": 0,
      "byteOffset": 634484,
      "byteLength": 717179
    }
  ],
  "images": [
    {
      "name": "kay-phone_Layer_1",
      "mimeType": "image/png",
      "bufferView": 3
    },
    {
      "name": "kay-phone_Layer_2",
      "mimeType": "image/png",
      "bufferView": 4
    }
  ],
  "materials": [
    {
      "name": "Layer_1_mtl",
      "pbrMetallicRoughness": {
        "baseColorTexture": {
          "index": 0
        },
        "baseColorFactor": [
          1,
          1,
          1,
          1
        ],
        "metallicFactor": 0,
        "roughnessFactor": 1
      },
      "emissiveFactor": [
        0,
        0,
        0
      ],
      "alphaMode": "OPAQUE",
      "doubleSided": false
    },
    {
      "name": "Layer_2_mtl",
      "pbrMetallicRoughness": {
        "baseColorTexture": {
          "index": 1
        },
        "baseColorFactor": [
          1,
          1,
          1,
          1
        ],
        "metallicFactor": 0,
        "roughnessFactor": 1
      },
      "emissiveFactor": [
        0,
        0,
        0
      ],
      "alphaMode": "OPAQUE",
      "doubleSided": false
    }
  ],
  "meshes": [
    {
      "name": "Layer_1_1",
      "primitives": [
        {
          "attributes": {
            "POSITION": 0,
            "NORMAL": 1,
            "TEXCOORD_0": 2
          },
          "indices": 3,
          "material": 0,
          "mode": 4
        }
      ]
    },
    {
      "name": "Layer_2_1",
      "primitives": [
        {
          "attributes": {
            "POSITION": 4,
            "NORMAL": 5,
            "TEXCOORD_0": 6
          },
          "indices": 7,
          "material": 1,
          "mode": 4
        }
      ]
    }
  ],
  "nodes": [
    {
      "name": "Layer_1",
      "mesh": 0
    },
    {
      "name": "Layer_2",
      "mesh": 1
    }
  ],
  "samplers": [
    {
      "magFilter": 9729,
      "minFilter": 9986,
      "wrapS": 10497,
      "wrapT": 10497
    }
  ],
  "scene": 0,
  "scenes": [
    {
      "nodes": [
        0,
        1
      ]
    }
  ],
  "textures": [
    {
      "name": "kay-phone_Layer_1",
      "sampler": 0,
      "source": 0
    },
    {
      "name": "kay-phone_Layer_2",
      "sampler": 0,
      "source": 1
    }
  ]
}
