{
  "accessors": [
    {
      "name": "Layer_2_1_positions",
      "componentType": 5126,
      "count": 1462,
      "min": [
        -16.210588455200195,
        -54.70843505859375,
        -23.806232452392578
      ],
      "max": [
        -4.260244846343994,
        -41.5456428527832,
        -10.5911283493042
      ],
      "type": "VEC3",
      "bufferView": 0,
      "byteOffset": 0
    },
    {
      "name": "Layer_2_1_normals",
      "componentType": 5126,
      "count": 1462,
      "min": [
        -0.997173011302948,
        -0.9994469881057739,
        -0.9954360127449036
      ],
      "max": [
        0.9979050159454346,
        0.9961749911308289,
        0.9995459914207458
      ],
      "type": "VEC3",
      "bufferView": 0,
      "byteOffset": 17544
    },
    {
      "name": "Layer_2_1_texcoords",
      "componentType": 5126,
      "count": 1462,
      "min": [
        0.0003239999932702631,
        0.00016999999934341758
      ],
      "max": [
        0.9997040033340454,
        0.9998379945755005
      ],
      "type": "VEC2",
      "bufferView": 1,
      "byteOffset": 0
    },
    {
      "name": "Layer_2_1_0_indices",
      "componentType": 5123,
      "count": 7608,
      "min": [
        0
      ],
      "max": [
        1461
      ],
      "type": "SCALAR",
      "bufferView": 2,
      "byteOffset": 0
    }
  ],
  "asset": {
    "generator": "obj2gltf",
    "version": "2.0"
  },
  "buffers": [
    {
      "name": "brigitte-left",
      "byteLength": 733724,
      "uri": "data:application/octet-stream;base64,"
    }
  ],
  "bufferViews": [
    {
      "name": "bufferView_0",
      "buffer": 0,
      "byteLength": 35088,
      "byteOffset": 0,
      "byteStride": 12,
      "target": 34962
    },
    {
      "name": "bufferView_1",
      "buffer": 0,
      "byteLength": 11696,
      "byteOffset": 35088,
      "byteStride": 8,
      "target": 34962
    },
    {
      "name": "bufferView_2",
      "buffer": 0,
      "byteLength": 15216,
      "byteOffset": 46784,
      "target": 34963
    },
    {
      "buffer": 0,
      "byteOffset": 62000,
      "byteLength": 671722
    }
  ],
  "images": [
    {
      "name": "brigitte-left_Layer_2",
      "mimeType": "image/png",
      "bufferView": 3
    }
  ],
  "materials": [
    {
      "name": "Layer_2_mtl",
      "pbrMetallicRoughness": {
        "baseColorTexture": {
          "index": 0
        },
        "baseColorFactor": [
          1,
          1,
          1,
          1
        ],
        "metallicFactor": 0,
        "roughnessFactor": 1
      },
      "emissiveFactor": [
        0,
        0,
        0
      ],
      "alphaMode": "OPAQUE",
      "doubleSided": false
    }
  ],
  "meshes": [
    {
      "name": "Layer_2_1",
      "primitives": [
        {
          "attributes": {
            "POSITION": 0,
            "NORMAL": 1,
            "TEXCOORD_0": 2
          },
          "indices": 3,
          "material": 0,
          "mode": 4
        }
      ]
    }
  ],
  "nodes": [
    {
      "name": "Layer_2",
      "mesh": 0
    }
  ],
  "samplers": [
    {
      "magFilter": 9729,
      "minFilter": 9986,
      "wrapS": 10497,
      "wrapT": 10497
    }
  ],
  "scene": 0,
  "scenes": [
    {
      "nodes": [
        0
      ]
    }
  ],
  "textures": [
    {
      "name": "brigitte-left_Layer_2",
      "sampler": 0,
      "source": 0
    }
  ]
}
