{
  "accessors": [
    {
      "name": "Layer_1_1_positions",
      "componentType": 5126,
      "count": 1501,
      "min": [
        -1.956030011177063,
        -66.30461883544922,
        -21.367305755615234
      ],
      "max": [
        8.04001522064209,
        -53.704689025878906,
        -5.959890842437744
      ],
      "type": "VEC3",
      "bufferView": 0,
      "byteOffset": 0
    },
    {
      "name": "Layer_1_1_normals",
      "componentType": 5126,
      "count": 1501,
      "min": [
        -0.9974870085716248,
        -0.999629020690918,
        -0.9837920069694519
      ],
      "max": [
        0.9998109936714172,
        0.9913709759712219,
        0.9999859929084778
      ],
      "type": "VEC3",
      "bufferView": 0,
      "byteOffset": 18012
    },
    {
      "name": "Layer_1_1_texcoords",
      "componentType": 5126,
      "count": 1501,
      "min": [
        0.00016700000560376793,
        0.00024199999461416155
      ],
      "max": [
        0.9998589754104614,
        0.9996839761734009
      ],
      "type": "VEC2",
      "bufferView": 1,
      "byteOffset": 0
    },
    {
      "name": "Layer_1_1_0_indices",
      "componentType": 5123,
      "count": 7608,
      "min": [
        0
      ],
      "max": [
        1500
      ],
      "type": "SCALAR",
      "bufferView": 2,
      "byteOffset": 0
    }
  ],
  "asset": {
    "generator": "obj2gltf",
    "version": "2.0"
  },
  "buffers": [
    {
      "name": "brigitte-right",
      "byteLength": 811940,
      "uri": "data:application/octet-stream;base64,"
    }
  ],
  "bufferViews": [
    {
      "name": "bufferView_0",
      "buffer": 0,
      "byteLength": 36024,
      "byteOffset": 0,
      "byteStride": 12,
      "target": 34962
    },
    {
      "name": "bufferView_1",
      "buffer": 0,
      "byteLength": 12008,
      "byteOffset": 36024,
      "byteStride": 8,
      "target": 34962
    },
    {
      "name": "bufferView_2",
      "buffer": 0,
      "byteLength": 15216,
      "byteOffset": 48032,
      "target": 34963
    },
    {
      "buffer": 0,
      "byteOffset": 63248,
      "byteLength": 748689
    }
  ],
  "images": [
    {
      "name": "brigitte-right_Layer_1",
      "mimeType": "image/png",
      "bufferView": 3
    }
  ],
  "materials": [
    {
      "name": "Layer_1_mtl",
      "pbrMetallicRoughness": {
        "baseColorTexture": {
          "index": 0
        },
        "baseColorFactor": [
          1,
          1,
          1,
          1
        ],
        "metallicFactor": 0,
        "roughnessFactor": 1
      },
      "emissiveFactor": [
        0,
        0,
        0
      ],
      "alphaMode": "OPAQUE",
      "doubleSided": false
    }
  ],
  "meshes": [
    {
      "name": "Layer_1_1",
      "primitives": [
        {
          "attributes": {
            "POSITION": 0,
            "NORMAL": 1,
            "TEXCOORD_0": 2
          },
          "indices": 3,
          "material": 0,
          "mode": 4
        }
      ]
    }
  ],
  "nodes": [
    {
      "name": "Layer_1",
      "mesh": 0
    }
  ],
  "samplers": [
    {
      "magFilter": 9729,
      "minFilter": 9986,
      "wrapS": 10497,
      "wrapT": 10497
    }
  ],
  "scene": 0,
  "scenes": [
    {
      "nodes": [
        0
      ]
    }
  ],
  "textures": [
    {
      "name": "brigitte-right_Layer_1",
      "sampler": 0,
      "source": 0
    }
  ]
}
