{
  "accessors": [
    {
      "name": "door-2_1_positions",
      "componentType": 5126,
      "count": 3295,
      "min": [
        92.42184448242188,
        -11.254471778869629,
        -45.000423431396484
      ],
      "max": [
        125.25074768066406,
        39.75101852416992,
        46.512882232666016
      ],
      "type": "VEC3",
      "bufferView": 0,
      "byteOffset": 0
    },
    {
      "name": "door-2_1_normals",
      "componentType": 5126,
      "count": 3295,
      "min": [
        -0.9998430013656616,
        -1,
        -0.9999250173568726
      ],
      "max": [
        0.999813973903656,
        0.9994750022888184,
        0.9999420046806335
      ],
      "type": "VEC3",
      "bufferView": 0,
      "byteOffset": 39540
    },
    {
      "name": "door-2_1_texcoords",
      "componentType": 5126,
      "count": 3295,
      "min": [
        0.00008499999967170879,
        0.2504499852657318
      ],
      "max": [
        0.9998419880867004,
        0.9998019933700562
      ],
      "type": "VEC2",
      "bufferView": 1,
      "byteOffset": 0
    },
    {
      "name": "door-2_1_0_indices",
      "componentType": 5123,
      "count": 16182,
      "min": [
        0
      ],
      "max": [
        3294
      ],
      "type": "SCALAR",
      "bufferView": 2,
      "byteOffset": 0
    }
  ],
  "asset": {
    "generator": "obj2gltf",
    "version": "2.0"
  },
  "buffers": [
    {
      "name": "ari-door",
      "byteLength": 710296,
      "uri": "data:application/octet-stream;base64,"
    }
  ],
  "bufferViews": [
    {
      "name": "bufferView_0",
      "buffer": 0,
      "byteLength": 79080,
      "byteOffset": 0,
      "byteStride": 12,
      "target": 34962
    },
    {
      "name": "bufferView_1",
      "buffer": 0,
      "byteLength": 26360,
      "byteOffset": 79080,
      "byteStride": 8,
      "target": 34962
    },
    {
      "name": "bufferView_2",
      "buffer": 0,
      "byteLength": 32364,
      "byteOffset": 105440,
      "target": 34963
    },
    {
      "buffer": 0,
      "byteOffset": 137804,
      "byteLength": 572489
    }
  ],
  "images": [
    {
      "name": "ari-door_door-2",
      "mimeType": "image/png",
      "bufferView": 3
    }
  ],
  "materials": [
    {
      "name": "door-2_mtl",
      "pbrMetallicRoughness": {
        "baseColorTexture": {
          "index": 0
        },
        "baseColorFactor": [
          1,
          1,
          1,
          1
        ],
        "metallicFactor": 0,
        "roughnessFactor": 1
      },
      "emissiveFactor": [
        0,
        0,
        0
      ],
      "alphaMode": "OPAQUE",
      "doubleSided": false
    }
  ],
  "meshes": [
    {
      "name": "door-2_1",
      "primitives": [
        {
          "attributes": {
            "POSITION": 0,
            "NORMAL": 1,
            "TEXCOORD_0": 2
          },
          "indices": 3,
          "material": 0,
          "mode": 4
        }
      ]
    }
  ],
  "nodes": [
    {
      "name": "door-2",
      "mesh": 0
    }
  ],
  "samplers": [
    {
      "magFilter": 9729,
      "minFilter": 9986,
      "wrapS": 10497,
      "wrapT": 10497
    }
  ],
  "scene": 0,
  "scenes": [
    {
      "nodes": [
        0
      ]
    }
  ],
  "textures": [
    {
      "name": "ari-door_door-2",
      "sampler": 0,
      "source": 0
    }
  ]
}
