{
  "accessors": [
    {
      "name": "Layer_1_1_positions",
      "componentType": 5126,
      "count": 28985,
      "min": [
        -48.123756408691406,
        -51.72431945800781,
        13.51160717010498
      ],
      "max": [
        19.71333122253418,
        0.1080079972743988,
        67.13442993164062
      ],
      "type": "VEC3",
      "bufferView": 0,
      "byteOffset": 0
    },
    {
      "name": "Layer_1_1_normals",
      "componentType": 5126,
      "count": 28985,
      "min": [
        -0.9996399879455566,
        -0.9999600052833557,
        -0.9999979734420776
      ],
      "max": [
        0.9997689723968506,
        0.9998350143432617,
        0.9999169707298279
      ],
      "type": "VEC3",
      "bufferView": 0,
      "byteOffset": 347820
    },
    {
      "name": "Layer_1_1_texcoords",
      "componentType": 5126,
      "count": 28985,
      "min": [
        0.000014000000192027073,
        0.0001829999964684248
      ],
      "max": [
        0.9999989867210388,
        0.999862015247345
      ],
      "type": "VEC2",
      "bufferView": 1,
      "byteOffset": 0
    },
    {
      "name": "Layer_1_1_0_indices",
      "componentType": 5123,
      "count": 146850,
      "min": [
        0
      ],
      "max": [
        28984
      ],
      "type": "SCALAR",
      "bufferView": 2,
      "byteOffset": 0
    }
  ],
  "asset": {
    "generator": "obj2gltf",
    "version": "2.0"
  },
  "buffers": [
    {
      "name": "ari-head",
      "byteLength": 2010332,
      "uri": "data:application/octet-stream;base64,"
    }
  ],
  "bufferViews": [
    {
      "name": "bufferView_0",
      "buffer": 0,
      "byteLength": 695640,
      "byteOffset": 0,
      "byteStride": 12,
      "target": 34962
    },
    {
      "name": "bufferView_1",
      "buffer": 0,
      "byteLength": 231880,
      "byteOffset": 695640,
      "byteStride": 8,
      "target": 34962
    },
    {
      "name": "bufferView_2",
      "buffer": 0,
      "byteLength": 293700,
      "byteOffset": 927520,
      "target": 34963
    },
    {
      "buffer": 0,
      "byteOffset": 1221220,
      "byteLength": 789112
    }
  ],
  "images": [
    {
      "name": "ari-head_Layer_1",
      "mimeType": "image/png",
      "bufferView": 3
    }
  ],
  "materials": [
    {
      "name": "Layer_1_mtl",
      "pbrMetallicRoughness": {
        "baseColorTexture": {
          "index": 0
        },
        "baseColorFactor": [
          1,
          1,
          1,
          1
        ],
        "metallicFactor": 0,
        "roughnessFactor": 1
      },
      "emissiveFactor": [
        0,
        0,
        0
      ],
      "alphaMode": "OPAQUE",
      "doubleSided": false
    }
  ],
  "meshes": [
    {
      "name": "Layer_1_1",
      "primitives": [
        {
          "attributes": {
            "POSITION": 0,
            "NORMAL": 1,
            "TEXCOORD_0": 2
          },
          "indices": 3,
          "material": 0,
          "mode": 4
        }
      ]
    }
  ],
  "nodes": [
    {
      "name": "Layer_1",
      "mesh": 0
    }
  ],
  "samplers": [
    {
      "magFilter": 9729,
      "minFilter": 9986,
      "wrapS": 10497,
      "wrapT": 10497
    }
  ],
  "scene": 0,
  "scenes": [
    {
      "nodes": [
        0
      ]
    }
  ],
  "textures": [
    {
      "name": "ari-head_Layer_1",
      "sampler": 0,
      "source": 0
    }
  ]
}
