{
  "accessors": [
    {
      "name": "Layer_7_1_positions",
      "componentType": 5126,
      "count": 2449,
      "min": [
        -36.04343032836914,
        -49.18720626831055,
        -107.81695556640625
      ],
      "max": [
        -23.9736385345459,
        -25.493371963500977,
        -89.73793029785156
      ],
      "type": "VEC3",
      "bufferView": 0,
      "byteOffset": 0
    },
    {
      "name": "Layer_7_1_normals",
      "componentType": 5126,
      "count": 2449,
      "min": [
        -0.9998300075531006,
        -0.9942039847373962,
        -0.9985669851303101
      ],
      "max": [
        0.9999160170555115,
        0.9960629940032959,
        0.9991440176963806
      ],
      "type": "VEC3",
      "bufferView": 0,
      "byteOffset": 29388
    },
    {
      "name": "Layer_7_1_texcoords",
      "componentType": 5126,
      "count": 2449,
      "min": [
        0.0003589999978430569,
        0.000052999999752501026
      ],
      "max": [
        0.9998520016670227,
        0.9999250173568726
      ],
      "type": "VEC2",
      "bufferView": 1,
      "byteOffset": 0
    },
    {
      "name": "Layer_7_1_0_indices",
      "componentType": 5123,
      "count": 12420,
      "min": [
        0
      ],
      "max": [
        2448
      ],
      "type": "SCALAR",
      "bufferView": 2,
      "byteOffset": 0
    }
  ],
  "asset": {
    "generator": "obj2gltf",
    "version": "2.0"
  },
  "buffers": [
    {
      "name": "ari-right",
      "byteLength": 737404,
      "uri": "data:application/octet-stream;base64,"
    }
  ],
  "bufferViews": [
    {
      "name": "bufferView_0",
      "buffer": 0,
      "byteLength": 58776,
      "byteOffset": 0,
      "byteStride": 12,
      "target": 34962
    },
    {
      "name": "bufferView_1",
      "buffer": 0,
      "byteLength": 19592,
      "byteOffset": 58776,
      "byteStride": 8,
      "target": 34962
    },
    {
      "name": "bufferView_2",
      "buffer": 0,
      "byteLength": 24840,
      "byteOffset": 78368,
      "target": 34963
    },
    {
      "buffer": 0,
      "byteOffset": 103208,
      "byteLength": 634195
    }
  ],
  "images": [
    {
      "name": "ari-right_Layer_7",
      "mimeType": "image/png",
      "bufferView": 3
    }
  ],
  "materials": [
    {
      "name": "Layer_7_mtl",
      "pbrMetallicRoughness": {
        "baseColorTexture": {
          "index": 0
        },
        "baseColorFactor": [
          1,
          1,
          1,
          1
        ],
        "metallicFactor": 0,
        "roughnessFactor": 1
      },
      "emissiveFactor": [
        0,
        0,
        0
      ],
      "alphaMode": "OPAQUE",
      "doubleSided": false
    }
  ],
  "meshes": [
    {
      "name": "Layer_7_1",
      "primitives": [
        {
          "attributes": {
            "POSITION": 0,
            "NORMAL": 1,
            "TEXCOORD_0": 2
          },
          "indices": 3,
          "material": 0,
          "mode": 4
        }
      ]
    }
  ],
  "nodes": [
    {
      "name": "Layer_7",
      "mesh": 0
    }
  ],
  "samplers": [
    {
      "magFilter": 9729,
      "minFilter": 9986,
      "wrapS": 10497,
      "wrapT": 10497
    }
  ],
  "scene": 0,
  "scenes": [
    {
      "nodes": [
        0
      ]
    }
  ],
  "textures": [
    {
      "name": "ari-right_Layer_7",
      "sampler": 0,
      "source": 0
    }
  ]
}
