{
  "accessors": [
    {
      "name": "Layer_5_1_positions",
      "componentType": 5126,
      "count": 2402,
      "min": [
        -15.770753860473633,
        -55.730712890625,
        -81.29776763916016
      ],
      "max": [
        -1.9386529922485352,
        -32.84862518310547,
        -64.4081802368164
      ],
      "type": "VEC3",
      "bufferView": 0,
      "byteOffset": 0
    },
    {
      "name": "Layer_5_1_normals",
      "componentType": 5126,
      "count": 2402,
      "min": [
        -0.9990209937095642,
        -0.9975690245628357,
        -0.9997529983520508
      ],
      "max": [
        0.998458981513977,
        0.9979979991912842,
        0.9995359778404236
      ],
      "type": "VEC3",
      "bufferView": 0,
      "byteOffset": 28824
    },
    {
      "name": "Layer_5_1_texcoords",
      "componentType": 5126,
      "count": 2402,
      "min": [
        0.00010900000052060932,
        0.00015900000289548188
      ],
      "max": [
        0.9077609777450562,
        0.9996880292892456
      ],
      "type": "VEC2",
      "bufferView": 1,
      "byteOffset": 0
    },
    {
      "name": "Layer_5_1_0_indices",
      "componentType": 5123,
      "count": 12420,
      "min": [
        0
      ],
      "max": [
        2401
      ],
      "type": "SCALAR",
      "bufferView": 2,
      "byteOffset": 0
    }
  ],
  "asset": {
    "generator": "obj2gltf",
    "version": "2.0"
  },
  "buffers": [
    {
      "name": "ari-left",
      "byteLength": 777364,
      "uri": "data:application/octet-stream;base64,"
    }
  ],
  "bufferViews": [
    {
      "name": "bufferView_0",
      "buffer": 0,
      "byteLength": 57648,
      "byteOffset": 0,
      "byteStride": 12,
      "target": 34962
    },
    {
      "name": "bufferView_1",
      "buffer": 0,
      "byteLength": 19216,
      "byteOffset": 57648,
      "byteStride": 8,
      "target": 34962
    },
    {
      "name": "bufferView_2",
      "buffer": 0,
      "byteLength": 24840,
      "byteOffset": 76864,
      "target": 34963
    },
    {
      "buffer": 0,
      "byteOffset": 101704,
      "byteLength": 675658
    }
  ],
  "images": [
    {
      "name": "ari-left_Layer_5",
      "mimeType": "image/png",
      "bufferView": 3
    }
  ],
  "materials": [
    {
      "name": "Layer_5_mtl",
      "pbrMetallicRoughness": {
        "baseColorTexture": {
          "index": 0
        },
        "baseColorFactor": [
          1,
          1,
          1,
          1
        ],
        "metallicFactor": 0,
        "roughnessFactor": 1
      },
      "emissiveFactor": [
        0,
        0,
        0
      ],
      "alphaMode": "OPAQUE",
      "doubleSided": false
    }
  ],
  "meshes": [
    {
      "name": "Layer_5_1",
      "primitives": [
        {
          "attributes": {
            "POSITION": 0,
            "NORMAL": 1,
            "TEXCOORD_0": 2
          },
          "indices": 3,
          "material": 0,
          "mode": 4
        }
      ]
    }
  ],
  "nodes": [
    {
      "name": "Layer_5",
      "mesh": 0
    }
  ],
  "samplers": [
    {
      "magFilter": 9729,
      "minFilter": 9986,
      "wrapS": 10497,
      "wrapT": 10497
    }
  ],
  "scene": 0,
  "scenes": [
    {
      "nodes": [
        0
      ]
    }
  ],
  "textures": [
    {
      "name": "ari-left_Layer_5",
      "sampler": 0,
      "source": 0
    }
  ]
}
