{
  "accessors": [
    {
      "name": "Layer_1_1_positions",
      "componentType": 5126,
      "count": 14324,
      "min": [
        -3.4359378814697266,
        -65.76364135742188,
        -26.104827880859375
      ],
      "max": [
        27.193876266479492,
        -37.03575897216797,
        28.65834617614746
      ],
      "type": "VEC3",
      "bufferView": 0,
      "byteOffset": 0
    },
    {
      "name": "Layer_1_1_normals",
      "componentType": 5126,
      "count": 14324,
      "min": [
        -0.9999909996986389,
        -0.9996950030326843,
        -0.9995129704475403
      ],
      "max": [
        1,
        0.9999899864196777,
        0.9997360110282898
      ],
      "type": "VEC3",
      "bufferView": 0,
      "byteOffset": 171888
    },
    {
      "name": "Layer_1_1_texcoords",
      "componentType": 5126,
      "count": 14324,
      "min": [
        0.000003999999989900971,
        0.00009300000237999484
      ],
      "max": [
        0.9999920129776001,
        0.999987006187439
      ],
      "type": "VEC2",
      "bufferView": 1,
      "byteOffset": 0
    },
    {
      "name": "Layer_1_1_0_indices",
      "componentType": 5123,
      "count": 72816,
      "min": [
        0
      ],
      "max": [
        14323
      ],
      "type": "SCALAR",
      "bufferView": 2,
      "byteOffset": 0
    }
  ],
  "asset": {
    "generator": "obj2gltf",
    "version": "2.0"
  },
  "buffers": [
    {
      "name": "cockblocker",
      "byteLength": 1387540,
      "uri": "data:application/octet-stream;base64,"
    }
  ],
  "bufferViews": [
    {
      "name": "bufferView_0",
      "buffer": 0,
      "byteLength": 343776,
      "byteOffset": 0,
      "byteStride": 12,
      "target": 34962
    },
    {
      "name": "bufferView_1",
      "buffer": 0,
      "byteLength": 114592,
      "byteOffset": 343776,
      "byteStride": 8,
      "target": 34962
    },
    {
      "name": "bufferView_2",
      "buffer": 0,
      "byteLength": 145632,
      "byteOffset": 458368,
      "target": 34963
    },
    {
      "buffer": 0,
      "byteOffset": 604000,
      "byteLength": 783540
    }
  ],
  "images": [
    {
      "name": "cockblocker_Layer_1",
      "mimeType": "image/png",
      "bufferView": 3
    }
  ],
  "materials": [
    {
      "name": "Layer_1_mtl",
      "pbrMetallicRoughness": {
        "baseColorTexture": {
          "index": 0
        },
        "baseColorFactor": [
          1,
          1,
          1,
          1
        ],
        "metallicFactor": 0,
        "roughnessFactor": 1
      },
      "emissiveFactor": [
        0,
        0,
        0
      ],
      "alphaMode": "OPAQUE",
      "doubleSided": false
    }
  ],
  "meshes": [
    {
      "name": "Layer_1_1",
      "primitives": [
        {
          "attributes": {
            "POSITION": 0,
            "NORMAL": 1,
            "TEXCOORD_0": 2
          },
          "indices": 3,
          "material": 0,
          "mode": 4
        }
      ]
    }
  ],
  "nodes": [
    {
      "name": "Layer_1",
      "mesh": 0
    }
  ],
  "samplers": [
    {
      "magFilter": 9729,
      "minFilter": 9986,
      "wrapS": 10497,
      "wrapT": 10497
    }
  ],
  "scene": 0,
  "scenes": [
    {
      "nodes": [
        0
      ]
    }
  ],
  "textures": [
    {
      "name": "cockblocker_Layer_1",
      "sampler": 0,
      "source": 0
    }
  ]
}
