{
  "accessors": [
    {
      "name": "Layer_1_1_positions",
      "componentType": 5126,
      "count": 34864,
      "min": [
        -12.012079238891602,
        -58.607627868652344,
        18.175321578979492
      ],
      "max": [
        39.14775466918945,
        -8.921005249023438,
        68.84767150878906
      ],
      "type": "VEC3",
      "bufferView": 0,
      "byteOffset": 0
    },
    {
      "name": "Layer_1_1_normals",
      "componentType": 5126,
      "count": 34864,
      "min": [
        -0.9999110102653503,
        -0.9999150037765503,
        -0.9999510049819946
      ],
      "max": [
        0.9998019933700562,
        0.9998540282249451,
        0.9999979734420776
      ],
      "type": "VEC3",
      "bufferView": 0,
      "byteOffset": 465432
    },
    {
      "name": "Layer_1_1_texcoords",
      "componentType": 5126,
      "count": 34864,
      "min": [
        9.999999974752427e-7,
        0.08334100246429443
      ],
      "max": [
        0.9999250173568726,
        0.9999669790267944
      ],
      "type": "VEC2",
      "bufferView": 1,
      "byteOffset": 0
    },
    {
      "name": "Layer_1_1_0_indices",
      "componentType": 5123,
      "count": 171852,
      "min": [
        0
      ],
      "max": [
        34863
      ],
      "type": "SCALAR",
      "bufferView": 2,
      "byteOffset": 0
    },
    {
      "name": "Layer_2_1_positions",
      "componentType": 5126,
      "count": 3922,
      "min": [
        -49.386512756347656,
        -47.51259231567383,
        29.412933349609375
      ],
      "max": [
        -7.374722003936768,
        -32.079158782958984,
        44.47335433959961
      ],
      "type": "VEC3",
      "bufferView": 0,
      "byteOffset": 418368
    },
    {
      "name": "Layer_2_1_normals",
      "componentType": 5126,
      "count": 3922,
      "min": [
        -0.9998059868812561,
        -0.9996799826622009,
        -0.995730996131897
      ],
      "max": [
        0.9996870160102844,
        0.9994149804115295,
        0.999642014503479
      ],
      "type": "VEC3",
      "bufferView": 0,
      "byteOffset": 883800
    },
    {
      "name": "Layer_2_1_texcoords",
      "componentType": 5126,
      "count": 3922,
      "min": [
        0.00021499999274965376,
        0.000195999993593432
      ],
      "max": [
        0.999534010887146,
        0.9997050166130066
      ],
      "type": "VEC2",
      "bufferView": 1,
      "byteOffset": 278912
    },
    {
      "name": "Layer_2_1_0_indices",
      "componentType": 5123,
      "count": 19788,
      "min": [
        0
      ],
      "max": [
        3921
      ],
      "type": "SCALAR",
      "bufferView": 2,
      "byteOffset": 343704
    }
  ],
  "asset": {
    "generator": "obj2gltf",
    "version": "2.0"
  },
  "buffers": [
    {
      "name": "ari-disco",
      "byteLength": 2353468,
      "uri": "data:application/octet-stream;base64,"
    }
  ],
  "bufferViews": [
    {
      "name": "bufferView_0",
      "buffer": 0,
      "byteLength": 930864,
      "byteOffset": 0,
      "byteStride": 12,
      "target": 34962
    },
    {
      "name": "bufferView_1",
      "buffer": 0,
      "byteLength": 310288,
      "byteOffset": 930864,
      "byteStride": 8,
      "target": 34962
    },
    {
      "name": "bufferView_2",
      "buffer": 0,
      "byteLength": 383280,
      "byteOffset": 1241152,
      "target": 34963
    },
    {
      "buffer": 0,
      "byteOffset": 1624432,
      "byteLength": 401474
    },
    {
      "buffer": 0,
      "byteOffset": 2025906,
      "byteLength": 327560
    }
  ],
  "images": [
    {
      "name": "ari-disco_Layer_1",
      "mimeType": "image/png",
      "bufferView": 3
    },
    {
      "name": "ari-disco_Layer_2",
      "mimeType": "image/png",
      "bufferView": 4
    }
  ],
  "materials": [
    {
      "name": "Layer_1_mtl",
      "pbrMetallicRoughness": {
        "baseColorTexture": {
          "index": 0
        },
        "baseColorFactor": [
          1,
          1,
          1,
          1
        ],
        "metallicFactor": 0,
        "roughnessFactor": 1
      },
      "emissiveFactor": [
        0,
        0,
        0
      ],
      "alphaMode": "OPAQUE",
      "doubleSided": false
    },
    {
      "name": "Layer_2_mtl",
      "pbrMetallicRoughness": {
        "baseColorTexture": {
          "index": 1
        },
        "baseColorFactor": [
          1,
          1,
          1,
          1
        ],
        "metallicFactor": 0,
        "roughnessFactor": 1
      },
      "emissiveFactor": [
        0,
        0,
        0
      ],
      "alphaMode": "OPAQUE",
      "doubleSided": false
    }
  ],
  "meshes": [
    {
      "name": "Layer_1_1",
      "primitives": [
        {
          "attributes": {
            "POSITION": 0,
            "NORMAL": 1,
            "TEXCOORD_0": 2
          },
          "indices": 3,
          "material": 0,
          "mode": 4
        }
      ]
    },
    {
      "name": "Layer_2_1",
      "primitives": [
        {
          "attributes": {
            "POSITION": 4,
            "NORMAL": 5,
            "TEXCOORD_0": 6
          },
          "indices": 7,
          "material": 1,
          "mode": 4
        }
      ]
    }
  ],
  "nodes": [
    {
      "name": "Layer_1",
      "mesh": 0
    },
    {
      "name": "Layer_2",
      "mesh": 1
    }
  ],
  "samplers": [
    {
      "magFilter": 9729,
      "minFilter": 9986,
      "wrapS": 10497,
      "wrapT": 10497
    }
  ],
  "scene": 0,
  "scenes": [
    {
      "nodes": [
        0,
        1
      ]
    }
  ],
  "textures": [
    {
      "name": "ari-disco_Layer_1",
      "sampler": 0,
      "source": 0
    },
    {
      "name": "ari-disco_Layer_2",
      "sampler": 0,
      "source": 1
    }
  ]
}
