{
  "accessors": [
    {
      "name": "Layer_2_1_positions",
      "componentType": 5126,
      "count": 148,
      "min": [
        -48.26858139038086,
        -54.36370849609375,
        -64.46144104003906
      ],
      "max": [
        -44.51883316040039,
        -50.556522369384766,
        -61.15946960449219
      ],
      "type": "VEC3",
      "bufferView": 0,
      "byteOffset": 0
    },
    {
      "name": "Layer_2_1_normals",
      "componentType": 5126,
      "count": 148,
      "min": [
        -0.9716690182685852,
        -0.9534440040588379,
        -0.9751060009002686
      ],
      "max": [
        0.9926390051841736,
        0.9759510159492493,
        0.9972180128097534
      ],
      "type": "VEC3",
      "bufferView": 0,
      "byteOffset": 1776
    },
    {
      "name": "Layer_2_1_texcoords",
      "componentType": 5126,
      "count": 148,
      "min": [
        0.0004839999892283231,
        0.20281699299812317
      ],
      "max": [
        0.9998779892921448,
        0.9997479915618896
      ],
      "type": "VEC2",
      "bufferView": 1,
      "byteOffset": 0
    },
    {
      "name": "Layer_2_1_0_indices",
      "componentType": 5123,
      "count": 708,
      "min": [
        0
      ],
      "max": [
        147
      ],
      "type": "SCALAR",
      "bufferView": 2,
      "byteOffset": 0
    }
  ],
  "asset": {
    "generator": "obj2gltf",
    "version": "2.0"
  },
  "buffers": [
    {
      "name": "ari-tear",
      "byteLength": 631500,
      "uri": "data:application/octet-stream;base64,"
    }
  ],
  "bufferViews": [
    {
      "name": "bufferView_0",
      "buffer": 0,
      "byteLength": 3552,
      "byteOffset": 0,
      "byteStride": 12,
      "target": 34962
    },
    {
      "name": "bufferView_1",
      "buffer": 0,
      "byteLength": 1184,
      "byteOffset": 3552,
      "byteStride": 8,
      "target": 34962
    },
    {
      "name": "bufferView_2",
      "buffer": 0,
      "byteLength": 1416,
      "byteOffset": 4736,
      "target": 34963
    },
    {
      "buffer": 0,
      "byteOffset": 6152,
      "byteLength": 625347
    }
  ],
  "images": [
    {
      "name": "ari-tear_Layer_2",
      "mimeType": "image/png",
      "bufferView": 3
    }
  ],
  "materials": [
    {
      "name": "Layer_2_mtl",
      "pbrMetallicRoughness": {
        "baseColorTexture": {
          "index": 0
        },
        "baseColorFactor": [
          1,
          1,
          1,
          1
        ],
        "metallicFactor": 0,
        "roughnessFactor": 1
      },
      "emissiveFactor": [
        0,
        0,
        0
      ],
      "alphaMode": "OPAQUE",
      "doubleSided": false
    }
  ],
  "meshes": [
    {
      "name": "Layer_2_1",
      "primitives": [
        {
          "attributes": {
            "POSITION": 0,
            "NORMAL": 1,
            "TEXCOORD_0": 2
          },
          "indices": 3,
          "material": 0,
          "mode": 4
        }
      ]
    }
  ],
  "nodes": [
    {
      "name": "Layer_2",
      "mesh": 0
    }
  ],
  "samplers": [
    {
      "magFilter": 9729,
      "minFilter": 9986,
      "wrapS": 10497,
      "wrapT": 10497
    }
  ],
  "scene": 0,
  "scenes": [
    {
      "nodes": [
        0
      ]
    }
  ],
  "textures": [
    {
      "name": "ari-tear_Layer_2",
      "sampler": 0,
      "source": 0
    }
  ]
}
