{
  "accessors": [
    {
      "name": "Layer_2_1_positions",
      "componentType": 5126,
      "count": 3416,
      "min": [
        0.40506699681282043,
        -108.08771514892578,
        3.21978497505188
      ],
      "max": [
        10.9269437789917,
        -92.13848876953125,
        24.36412239074707
      ],
      "type": "VEC3",
      "bufferView": 0,
      "byteOffset": 0
    },
    {
      "name": "Layer_2_1_normals",
      "componentType": 5126,
      "count": 3416,
      "min": [
        -0.9999970197677612,
        -0.989404022693634,
        -0.9994699954986572
      ],
      "max": [
        0.999879002571106,
        0.9995750188827515,
        0.9998610019683838
      ],
      "type": "VEC3",
      "bufferView": 0,
      "byteOffset": 40992
    },
    {
      "name": "Layer_2_1_texcoords",
      "componentType": 5126,
      "count": 3416,
      "min": [
        0.00004999999873689376,
        0.25001901388168335
      ],
      "max": [
        0.995826005935669,
        0.9999790191650391
      ],
      "type": "VEC2",
      "bufferView": 1,
      "byteOffset": 0
    },
    {
      "name": "Layer_2_1_0_indices",
      "componentType": 5123,
      "count": 16656,
      "min": [
        0
      ],
      "max": [
        3415
      ],
      "type": "SCALAR",
      "bufferView": 2,
      "byteOffset": 0
    }
  ],
  "asset": {
    "generator": "obj2gltf",
    "version": "2.0"
  },
  "buffers": [
    {
      "name": "chair",
      "byteLength": 755332,
      "uri": "data:application/octet-stream;base64,"
    }
  ],
  "bufferViews": [
    {
      "name": "bufferView_0",
      "buffer": 0,
      "byteLength": 81984,
      "byteOffset": 0,
      "byteStride": 12,
      "target": 34962
    },
    {
      "name": "bufferView_1",
      "buffer": 0,
      "byteLength": 27328,
      "byteOffset": 81984,
      "byteStride": 8,
      "target": 34962
    },
    {
      "name": "bufferView_2",
      "buffer": 0,
      "byteLength": 33312,
      "byteOffset": 109312,
      "target": 34963
    },
    {
      "buffer": 0,
      "byteOffset": 142624,
      "byteLength": 612705
    }
  ],
  "images": [
    {
      "name": "chair_Layer_2",
      "mimeType": "image/png",
      "bufferView": 3
    }
  ],
  "materials": [
    {
      "name": "Layer_2_mtl",
      "pbrMetallicRoughness": {
        "baseColorTexture": {
          "index": 0
        },
        "baseColorFactor": [
          1,
          1,
          1,
          1
        ],
        "metallicFactor": 0,
        "roughnessFactor": 1
      },
      "emissiveFactor": [
        0,
        0,
        0
      ],
      "alphaMode": "OPAQUE",
      "doubleSided": false
    }
  ],
  "meshes": [
    {
      "name": "Layer_2_1",
      "primitives": [
        {
          "attributes": {
            "POSITION": 0,
            "NORMAL": 1,
            "TEXCOORD_0": 2
          },
          "indices": 3,
          "material": 0,
          "mode": 4
        }
      ]
    }
  ],
  "nodes": [
    {
      "name": "Layer_2",
      "mesh": 0
    }
  ],
  "samplers": [
    {
      "magFilter": 9729,
      "minFilter": 9986,
      "wrapS": 10497,
      "wrapT": 10497
    }
  ],
  "scene": 0,
  "scenes": [
    {
      "nodes": [
        0
      ]
    }
  ],
  "textures": [
    {
      "name": "chair_Layer_2",
      "sampler": 0,
      "source": 0
    }
  ]
}
