{
  "accessors": [
    {
      "name": "Layer_1_1_positions",
      "componentType": 5126,
      "count": 4436,
      "min": [
        -2.82817006111145,
        -77.97608184814453,
        -25.101852416992188
      ],
      "max": [
        16.651762008666992,
        -55.50067901611328,
        0.11585099995136261
      ],
      "type": "VEC3",
      "bufferView": 0,
      "byteOffset": 0
    },
    {
      "name": "Layer_1_1_normals",
      "componentType": 5126,
      "count": 4436,
      "min": [
        -0.9998379945755005,
        -0.999987006187439,
        -0.9999899864196777
      ],
      "max": [
        0.9998779892921448,
        0.9999719858169556,
        0.9997559785842896
      ],
      "type": "VEC3",
      "bufferView": 0,
      "byteOffset": 53232
    },
    {
      "name": "Layer_1_1_texcoords",
      "componentType": 5126,
      "count": 4436,
      "min": [
        0.0000019999999949504854,
        0.000007000000096013537
      ],
      "max": [
        0.999908983707428,
        0.9998250007629395
      ],
      "type": "VEC2",
      "bufferView": 1,
      "byteOffset": 0
    },
    {
      "name": "Layer_1_1_0_indices",
      "componentType": 5123,
      "count": 20916,
      "min": [
        0
      ],
      "max": [
        4435
      ],
      "type": "SCALAR",
      "bufferView": 2,
      "byteOffset": 0
    }
  ],
  "asset": {
    "generator": "obj2gltf",
    "version": "2.0"
  },
  "buffers": [
    {
      "name": "kay-door",
      "byteLength": 961880,
      "uri": "data:application/octet-stream;base64,"
    }
  ],
  "bufferViews": [
    {
      "name": "bufferView_0",
      "buffer": 0,
      "byteLength": 106464,
      "byteOffset": 0,
      "byteStride": 12,
      "target": 34962
    },
    {
      "name": "bufferView_1",
      "buffer": 0,
      "byteLength": 35488,
      "byteOffset": 106464,
      "byteStride": 8,
      "target": 34962
    },
    {
      "name": "bufferView_2",
      "buffer": 0,
      "byteLength": 41832,
      "byteOffset": 141952,
      "target": 34963
    },
    {
      "buffer": 0,
      "byteOffset": 183784,
      "byteLength": 778095
    }
  ],
  "images": [
    {
      "name": "kay-door_Layer_1",
      "mimeType": "image/png",
      "bufferView": 3
    }
  ],
  "materials": [
    {
      "name": "Layer_1_mtl",
      "pbrMetallicRoughness": {
        "baseColorTexture": {
          "index": 0
        },
        "baseColorFactor": [
          1,
          1,
          1,
          1
        ],
        "metallicFactor": 0,
        "roughnessFactor": 1
      },
      "emissiveFactor": [
        0,
        0,
        0
      ],
      "alphaMode": "OPAQUE",
      "doubleSided": false
    }
  ],
  "meshes": [
    {
      "name": "Layer_1_1",
      "primitives": [
        {
          "attributes": {
            "POSITION": 0,
            "NORMAL": 1,
            "TEXCOORD_0": 2
          },
          "indices": 3,
          "material": 0,
          "mode": 4
        }
      ]
    }
  ],
  "nodes": [
    {
      "name": "Layer_1",
      "mesh": 0
    }
  ],
  "samplers": [
    {
      "magFilter": 9729,
      "minFilter": 9986,
      "wrapS": 10497,
      "wrapT": 10497
    }
  ],
  "scene": 0,
  "scenes": [
    {
      "nodes": [
        0
      ]
    }
  ],
  "textures": [
    {
      "name": "kay-door_Layer_1",
      "sampler": 0,
      "source": 0
    }
  ]
}
