{
  "accessors": [
    {
      "name": "car_1_positions",
      "componentType": 5126,
      "count": 24090,
      "min": [
        -129.3418731689453,
        -74.36870574951172,
        -76.36592102050781
      ],
      "max": [
        52.65311050415039,
        37.509029388427734,
        98.81794738769531
      ],
      "type": "VEC3",
      "bufferView": 0,
      "byteOffset": 0
    },
    {
      "name": "car_1_normals",
      "componentType": 5126,
      "count": 24090,
      "min": [
        -0.9999340176582336,
        -0.999862015247345,
        -0.9989550113677979
      ],
      "max": [
        0.9999039769172668,
        0.9999489784240723,
        0.9999629855155945
      ],
      "type": "VEC3",
      "bufferView": 0,
      "byteOffset": 289080
    },
    {
      "name": "car_1_texcoords",
      "componentType": 5126,
      "count": 24090,
      "min": [
        0.000007000000096013537,
        0.1000090017914772
      ],
      "max": [
        1,
        0.9999809861183167
      ],
      "type": "VEC2",
      "bufferView": 1,
      "byteOffset": 0
    },
    {
      "name": "car_1_0_indices",
      "componentType": 5123,
      "count": 118878,
      "min": [
        0
      ],
      "max": [
        24089
      ],
      "type": "SCALAR",
      "bufferView": 2,
      "byteOffset": 0
    }
  ],
  "asset": {
    "generator": "obj2gltf",
    "version": "2.0"
  },
  "buffers": [
    {
      "name": "cousins-car",
      "byteLength": 1704520,
      "uri": "data:application/octet-stream;base64,"
    }
  ],
  "bufferViews": [
    {
      "name": "bufferView_0",
      "buffer": 0,
      "byteLength": 578160,
      "byteOffset": 0,
      "byteStride": 12,
      "target": 34962
    },
    {
      "name": "bufferView_1",
      "buffer": 0,
      "byteLength": 192720,
      "byteOffset": 578160,
      "byteStride": 8,
      "target": 34962
    },
    {
      "name": "bufferView_2",
      "buffer": 0,
      "byteLength": 237756,
      "byteOffset": 770880,
      "target": 34963
    },
    {
      "buffer": 0,
      "byteOffset": 1008636,
      "byteLength": 695883
    }
  ],
  "images": [
    {
      "name": "cousins-car_car",
      "mimeType": "image/png",
      "bufferView": 3
    }
  ],
  "materials": [
    {
      "name": "car_mtl",
      "pbrMetallicRoughness": {
        "baseColorTexture": {
          "index": 0
        },
        "baseColorFactor": [
          1,
          1,
          1,
          1
        ],
        "metallicFactor": 0,
        "roughnessFactor": 1
      },
      "emissiveFactor": [
        0,
        0,
        0
      ],
      "alphaMode": "OPAQUE",
      "doubleSided": false
    }
  ],
  "meshes": [
    {
      "name": "car_1",
      "primitives": [
        {
          "attributes": {
            "POSITION": 0,
            "NORMAL": 1,
            "TEXCOORD_0": 2
          },
          "indices": 3,
          "material": 0,
          "mode": 4
        }
      ]
    }
  ],
  "nodes": [
    {
      "name": "car",
      "mesh": 0
    }
  ],
  "samplers": [
    {
      "magFilter": 9729,
      "minFilter": 9986,
      "wrapS": 10497,
      "wrapT": 10497
    }
  ],
  "scene": 0,
  "scenes": [
    {
      "nodes": [
        0
      ]
    }
  ],
  "textures": [
    {
      "name": "cousins-car_car",
      "sampler": 0,
      "source": 0
    }
  ]
}
