{
  "accessors": [
    {
      "name": "Layer_1_1_positions",
      "componentType": 5126,
      "count": 7482,
      "min": [
        -11.108988761901855,
        -51.22944259643555,
        -56.67082595825195
      ],
      "max": [
        22.03722381591797,
        -41.65285873413086,
        22.17200469970703
      ],
      "type": "VEC3",
      "bufferView": 0,
      "byteOffset": 0
    },
    {
      "name": "Layer_1_1_normals",
      "componentType": 5126,
      "count": 7482,
      "min": [
        -0.9999510049819946,
        -0.9999619722366333,
        -0.9949280023574829
      ],
      "max": [
        1,
        0.9999920129776001,
        0.9984109997749329
      ],
      "type": "VEC3",
      "bufferView": 0,
      "byteOffset": 89784
    },
    {
      "name": "Layer_1_1_texcoords",
      "componentType": 5126,
      "count": 7482,
      "min": [
        0.00008199999865610152,
        0.16675400733947754
      ],
      "max": [
        0.9998319745063782,
        0.999862015247345
      ],
      "type": "VEC2",
      "bufferView": 1,
      "byteOffset": 0
    },
    {
      "name": "Layer_1_1_0_indices",
      "componentType": 5123,
      "count": 37824,
      "min": [
        0
      ],
      "max": [
        7481
      ],
      "type": "SCALAR",
      "bufferView": 2,
      "byteOffset": 0
    }
  ],
  "asset": {
    "generator": "obj2gltf",
    "version": "2.0"
  },
  "buffers": [
    {
      "name": "sign2",
      "byteLength": 854544,
      "uri": "data:application/octet-stream;base64,"
    }
  ],
  "bufferViews": [
    {
      "name": "bufferView_0",
      "buffer": 0,
      "byteLength": 179568,
      "byteOffset": 0,
      "byteStride": 12,
      "target": 34962
    },
    {
      "name": "bufferView_1",
      "buffer": 0,
      "byteLength": 59856,
      "byteOffset": 179568,
      "byteStride": 8,
      "target": 34962
    },
    {
      "name": "bufferView_2",
      "buffer": 0,
      "byteLength": 75648,
      "byteOffset": 239424,
      "target": 34963
    },
    {
      "buffer": 0,
      "byteOffset": 315072,
      "byteLength": 539469
    }
  ],
  "images": [
    {
      "name": "sign2_Layer_1",
      "mimeType": "image/png",
      "bufferView": 3
    }
  ],
  "materials": [
    {
      "name": "Layer_1_mtl",
      "pbrMetallicRoughness": {
        "baseColorTexture": {
          "index": 0
        },
        "baseColorFactor": [
          1,
          1,
          1,
          1
        ],
        "metallicFactor": 0,
        "roughnessFactor": 1
      },
      "emissiveFactor": [
        0,
        0,
        0
      ],
      "alphaMode": "OPAQUE",
      "doubleSided": false
    }
  ],
  "meshes": [
    {
      "name": "Layer_1_1",
      "primitives": [
        {
          "attributes": {
            "POSITION": 0,
            "NORMAL": 1,
            "TEXCOORD_0": 2
          },
          "indices": 3,
          "material": 0,
          "mode": 4
        }
      ]
    }
  ],
  "nodes": [
    {
      "name": "Layer_1",
      "mesh": 0
    }
  ],
  "samplers": [
    {
      "magFilter": 9729,
      "minFilter": 9986,
      "wrapS": 10497,
      "wrapT": 10497
    }
  ],
  "scene": 0,
  "scenes": [
    {
      "nodes": [
        0
      ]
    }
  ],
  "textures": [
    {
      "name": "sign2_Layer_1",
      "sampler": 0,
      "source": 0
    }
  ]
}
