{
  "accessors": [
    {
      "name": "wheel_1_positions",
      "componentType": 5126,
      "count": 18836,
      "min": [
        25.5704288482666,
        -55.771278381347656,
        -26.349285125732422
      ],
      "max": [
        55.38813018798828,
        -3.6162290573120117,
        23.430599212646484
      ],
      "type": "VEC3",
      "bufferView": 0,
      "byteOffset": 0
    },
    {
      "name": "wheel_1_normals",
      "componentType": 5126,
      "count": 18836,
      "min": [
        -0.9999960064888,
        -0.9997860193252563,
        -0.9999600052833557
      ],
      "max": [
        0.9999060034751892,
        0.9998679757118225,
        0.9997770190238953
      ],
      "type": "VEC3",
      "bufferView": 0,
      "byteOffset": 226032
    },
    {
      "name": "wheel_1_texcoords",
      "componentType": 5126,
      "count": 18836,
      "min": [
        0.00006600000051548705,
        0.00010699999984353781
      ],
      "max": [
        0.9999780058860779,
        0.9999549984931946
      ],
      "type": "VEC2",
      "bufferView": 1,
      "byteOffset": 0
    },
    {
      "name": "wheel_1_0_indices",
      "componentType": 5123,
      "count": 96084,
      "min": [
        0
      ],
      "max": [
        18835
      ],
      "type": "SCALAR",
      "bufferView": 2,
      "byteOffset": 0
    }
  ],
  "asset": {
    "generator": "obj2gltf",
    "version": "2.0"
  },
  "buffers": [
    {
      "name": "one-wheel",
      "byteLength": 861000,
      "uri": "data:application/octet-stream;base64,"
    }
  ],
  "bufferViews": [
    {
      "name": "bufferView_0",
      "buffer": 0,
      "byteLength": 452064,
      "byteOffset": 0,
      "byteStride": 12,
      "target": 34962
    },
    {
      "name": "bufferView_1",
      "buffer": 0,
      "byteLength": 150688,
      "byteOffset": 452064,
      "byteStride": 8,
      "target": 34962
    },
    {
      "name": "bufferView_2",
      "buffer": 0,
      "byteLength": 192168,
      "byteOffset": 602752,
      "target": 34963
    },
    {
      "buffer": 0,
      "byteOffset": 794920,
      "byteLength": 66080
    }
  ],
  "images": [
    {
      "name": "one-wheel_wheel",
      "mimeType": "image/png",
      "bufferView": 3
    }
  ],
  "materials": [
    {
      "name": "wheel_mtl",
      "pbrMetallicRoughness": {
        "baseColorTexture": {
          "index": 0
        },
        "baseColorFactor": [
          1,
          1,
          1,
          1
        ],
        "metallicFactor": 0,
        "roughnessFactor": 1
      },
      "emissiveFactor": [
        0,
        0,
        0
      ],
      "alphaMode": "OPAQUE",
      "doubleSided": false
    }
  ],
  "meshes": [
    {
      "name": "wheel_1",
      "primitives": [
        {
          "attributes": {
            "POSITION": 0,
            "NORMAL": 1,
            "TEXCOORD_0": 2
          },
          "indices": 3,
          "material": 0,
          "mode": 4
        }
      ]
    }
  ],
  "nodes": [
    {
      "name": "wheel",
      "mesh": 0
    }
  ],
  "samplers": [
    {
      "magFilter": 9729,
      "minFilter": 9986,
      "wrapS": 10497,
      "wrapT": 10497
    }
  ],
  "scene": 0,
  "scenes": [
    {
      "nodes": [
        0
      ]
    }
  ],
  "textures": [
    {
      "name": "one-wheel_wheel",
      "sampler": 0,
      "source": 0
    }
  ]
}
