{
  "accessors": [
    {
      "name": "Layer_2_1_positions",
      "componentType": 5126,
      "count": 1514,
      "min": [
        -29.949968338012695,
        -68.65074920654297,
        -27.951187133789062
      ],
      "max": [
        -19.218196868896484,
        -57.98533630371094,
        -14.948468208312988
      ],
      "type": "VEC3",
      "bufferView": 0,
      "byteOffset": 0
    },
    {
      "name": "Layer_2_1_normals",
      "componentType": 5126,
      "count": 1514,
      "min": [
        -0.9956089854240417,
        -0.9989079833030701,
        -0.9951549768447876
      ],
      "max": [
        0.9973390102386475,
        0.9979550242424011,
        0.9981819987297058
      ],
      "type": "VEC3",
      "bufferView": 0,
      "byteOffset": 18168
    },
    {
      "name": "Layer_2_1_texcoords",
      "componentType": 5126,
      "count": 1514,
      "min": [
        0.00011200000153621659,
        0.0004199999966658652
      ],
      "max": [
        0.9999480247497559,
        0.9999110102653503
      ],
      "type": "VEC2",
      "bufferView": 1,
      "byteOffset": 0
    },
    {
      "name": "Layer_2_1_0_indices",
      "componentType": 5123,
      "count": 6828,
      "min": [
        0
      ],
      "max": [
        1513
      ],
      "type": "SCALAR",
      "bufferView": 2,
      "byteOffset": 0
    }
  ],
  "asset": {
    "generator": "obj2gltf",
    "version": "2.0"
  },
  "buffers": [
    {
      "name": "bathroom-sink",
      "byteLength": 497736,
      "uri": "data:application/octet-stream;base64,"
    }
  ],
  "bufferViews": [
    {
      "name": "bufferView_0",
      "buffer": 0,
      "byteLength": 36336,
      "byteOffset": 0,
      "byteStride": 12,
      "target": 34962
    },
    {
      "name": "bufferView_1",
      "buffer": 0,
      "byteLength": 12112,
      "byteOffset": 36336,
      "byteStride": 8,
      "target": 34962
    },
    {
      "name": "bufferView_2",
      "buffer": 0,
      "byteLength": 13656,
      "byteOffset": 48448,
      "target": 34963
    },
    {
      "buffer": 0,
      "byteOffset": 62104,
      "byteLength": 435632
    }
  ],
  "images": [
    {
      "name": "bathroom-sink_Layer_2",
      "mimeType": "image/png",
      "bufferView": 3
    }
  ],
  "materials": [
    {
      "name": "Layer_2_mtl",
      "pbrMetallicRoughness": {
        "baseColorTexture": {
          "index": 0
        },
        "baseColorFactor": [
          1,
          1,
          1,
          1
        ],
        "metallicFactor": 0,
        "roughnessFactor": 1
      },
      "emissiveFactor": [
        0,
        0,
        0
      ],
      "alphaMode": "OPAQUE",
      "doubleSided": false
    }
  ],
  "meshes": [
    {
      "name": "Layer_2_1",
      "primitives": [
        {
          "attributes": {
            "POSITION": 0,
            "NORMAL": 1,
            "TEXCOORD_0": 2
          },
          "indices": 3,
          "material": 0,
          "mode": 4
        }
      ]
    }
  ],
  "nodes": [
    {
      "name": "Layer_2",
      "mesh": 0
    }
  ],
  "samplers": [
    {
      "magFilter": 9729,
      "minFilter": 9986,
      "wrapS": 10497,
      "wrapT": 10497
    }
  ],
  "scene": 0,
  "scenes": [
    {
      "nodes": [
        0
      ]
    }
  ],
  "textures": [
    {
      "name": "bathroom-sink_Layer_2",
      "sampler": 0,
      "source": 0
    }
  ]
}
