{
  "accessors": [
    {
      "name": "Layer_5_1_positions",
      "componentType": 5126,
      "count": 17883,
      "min": [
        -122.39212036132812,
        -75.51065826416016,
        -19.215261459350586
      ],
      "max": [
        -30.523740768432617,
        -29.696664810180664,
        9.242579460144043
      ],
      "type": "VEC3",
      "bufferView": 0,
      "byteOffset": 0
    },
    {
      "name": "Layer_5_1_normals",
      "componentType": 5126,
      "count": 17883,
      "min": [
        -0.995356023311615,
        -0.9975910186767578,
        -0.9995319843292236
      ],
      "max": [
        0.999779999256134,
        0.9998350143432617,
        0.999081015586853
      ],
      "type": "VEC3",
      "bufferView": 0,
      "byteOffset": 214596
    },
    {
      "name": "Layer_5_1_texcoords",
      "componentType": 5126,
      "count": 17883,
      "min": [
        0.000029000000722589903,
        0.00006600000051548705
      ],
      "max": [
        1,
        0.9998610019683838
      ],
      "type": "VEC2",
      "bufferView": 1,
      "byteOffset": 0
    },
    {
      "name": "Layer_5_1_0_indices",
      "componentType": 5123,
      "count": 89760,
      "min": [
        0
      ],
      "max": [
        17882
      ],
      "type": "SCALAR",
      "bufferView": 2,
      "byteOffset": 0
    }
  ],
  "asset": {
    "generator": "obj2gltf",
    "version": "2.0"
  },
  "buffers": [
    {
      "name": "bathroom-mirror",
      "byteLength": 1599196,
      "uri": "data:application/octet-stream;base64,"
    }
  ],
  "bufferViews": [
    {
      "name": "bufferView_0",
      "buffer": 0,
      "byteLength": 429192,
      "byteOffset": 0,
      "byteStride": 12,
      "target": 34962
    },
    {
      "name": "bufferView_1",
      "buffer": 0,
      "byteLength": 143064,
      "byteOffset": 429192,
      "byteStride": 8,
      "target": 34962
    },
    {
      "name": "bufferView_2",
      "buffer": 0,
      "byteLength": 179520,
      "byteOffset": 572256,
      "target": 34963
    },
    {
      "buffer": 0,
      "byteOffset": 751776,
      "byteLength": 847417
    }
  ],
  "images": [
    {
      "name": "bathroom-mirror_Layer_5",
      "mimeType": "image/png",
      "bufferView": 3
    }
  ],
  "materials": [
    {
      "name": "Layer_5_mtl",
      "pbrMetallicRoughness": {
        "baseColorTexture": {
          "index": 0
        },
        "baseColorFactor": [
          1,
          1,
          1,
          1
        ],
        "metallicFactor": 0,
        "roughnessFactor": 1
      },
      "emissiveFactor": [
        0,
        0,
        0
      ],
      "alphaMode": "OPAQUE",
      "doubleSided": false
    }
  ],
  "meshes": [
    {
      "name": "Layer_5_1",
      "primitives": [
        {
          "attributes": {
            "POSITION": 0,
            "NORMAL": 1,
            "TEXCOORD_0": 2
          },
          "indices": 3,
          "material": 0,
          "mode": 4
        }
      ]
    }
  ],
  "nodes": [
    {
      "name": "Layer_5",
      "mesh": 0
    }
  ],
  "samplers": [
    {
      "magFilter": 9729,
      "minFilter": 9986,
      "wrapS": 10497,
      "wrapT": 10497
    }
  ],
  "scene": 0,
  "scenes": [
    {
      "nodes": [
        0
      ]
    }
  ],
  "textures": [
    {
      "name": "bathroom-mirror_Layer_5",
      "sampler": 0,
      "source": 0
    }
  ]
}
