{
  "accessors": [
    {
      "name": "Layer_7_1_positions",
      "componentType": 5126,
      "count": 38213,
      "min": [
        484.1610412597656,
        -127.61217498779297,
        24.735355377197266
      ],
      "max": [
        543.6859130859375,
        -64.42526245117188,
        99.86312866210938
      ],
      "type": "VEC3",
      "bufferView": 0,
      "byteOffset": 0
    },
    {
      "name": "Layer_7_1_normals",
      "componentType": 5126,
      "count": 38213,
      "min": [
        -0.9999729990959167,
        -0.9999570250511169,
        -1
      ],
      "max": [
        0.9999909996986389,
        0.9999240040779114,
        0.9999989867210388
      ],
      "type": "VEC3",
      "bufferView": 0,
      "byteOffset": 458556
    },
    {
      "name": "Layer_7_1_texcoords",
      "componentType": 5126,
      "count": 38213,
      "min": [
        9.999999974752427e-7,
        0.08337400108575821
      ],
      "max": [
        0.9999189972877502,
        0.9999560117721558
      ],
      "type": "VEC2",
      "bufferView": 1,
      "byteOffset": 0
    },
    {
      "name": "Layer_7_1_0_indices",
      "componentType": 5123,
      "count": 196500,
      "min": [
        0
      ],
      "max": [
        38212
      ],
      "type": "SCALAR",
      "bufferView": 2,
      "byteOffset": 0
    }
  ],
  "asset": {
    "generator": "obj2gltf",
    "version": "2.0"
  },
  "buffers": [
    {
      "name": "cissy-left",
      "byteLength": 2359088,
      "uri": "data:application/octet-stream;base64,"
    }
  ],
  "bufferViews": [
    {
      "name": "bufferView_0",
      "buffer": 0,
      "byteLength": 917112,
      "byteOffset": 0,
      "byteStride": 12,
      "target": 34962
    },
    {
      "name": "bufferView_1",
      "buffer": 0,
      "byteLength": 305704,
      "byteOffset": 917112,
      "byteStride": 8,
      "target": 34962
    },
    {
      "name": "bufferView_2",
      "buffer": 0,
      "byteLength": 393000,
      "byteOffset": 1222816,
      "target": 34963
    },
    {
      "buffer": 0,
      "byteOffset": 1615816,
      "byteLength": 743272
    }
  ],
  "images": [
    {
      "name": "cissy-left_Layer_7",
      "mimeType": "image/png",
      "bufferView": 3
    }
  ],
  "materials": [
    {
      "name": "Layer_7_mtl",
      "pbrMetallicRoughness": {
        "baseColorTexture": {
          "index": 0
        },
        "baseColorFactor": [
          1,
          1,
          1,
          1
        ],
        "metallicFactor": 0,
        "roughnessFactor": 1
      },
      "emissiveFactor": [
        0,
        0,
        0
      ],
      "alphaMode": "OPAQUE",
      "doubleSided": false
    }
  ],
  "meshes": [
    {
      "name": "Layer_7_1",
      "primitives": [
        {
          "attributes": {
            "POSITION": 0,
            "NORMAL": 1,
            "TEXCOORD_0": 2
          },
          "indices": 3,
          "material": 0,
          "mode": 4
        }
      ]
    }
  ],
  "nodes": [
    {
      "name": "Layer_7",
      "mesh": 0
    }
  ],
  "samplers": [
    {
      "magFilter": 9729,
      "minFilter": 9986,
      "wrapS": 10497,
      "wrapT": 10497
    }
  ],
  "scene": 0,
  "scenes": [
    {
      "nodes": [
        0
      ]
    }
  ],
  "textures": [
    {
      "name": "cissy-left_Layer_7",
      "sampler": 0,
      "source": 0
    }
  ]
}
