{
  "accessors": [
    {
      "name": "Layer_6_1_positions",
      "componentType": 5126,
      "count": 38568,
      "min": [
        417.629150390625,
        -205.4534149169922,
        -80.32673645019531
      ],
      "max": [
        488.2423400878906,
        -151.64942932128906,
        -7.15358304977417
      ],
      "type": "VEC3",
      "bufferView": 0,
      "byteOffset": 0
    },
    {
      "name": "Layer_6_1_normals",
      "componentType": 5126,
      "count": 38568,
      "min": [
        -0.9999920129776001,
        -0.9999399781227112,
        -0.9999290108680725
      ],
      "max": [
        0.9999160170555115,
        0.9999979734420776,
        0.9999420046806335
      ],
      "type": "VEC3",
      "bufferView": 0,
      "byteOffset": 462816
    },
    {
      "name": "Layer_6_1_texcoords",
      "componentType": 5126,
      "count": 38568,
      "min": [
        0,
        0.000029999999242136255
      ],
      "max": [
        0.9999319911003113,
        0.9999679923057556
      ],
      "type": "VEC2",
      "bufferView": 1,
      "byteOffset": 0
    },
    {
      "name": "Layer_6_1_0_indices",
      "componentType": 5123,
      "count": 196500,
      "min": [
        0
      ],
      "max": [
        38567
      ],
      "type": "SCALAR",
      "bufferView": 2,
      "byteOffset": 0
    }
  ],
  "asset": {
    "generator": "obj2gltf",
    "version": "2.0"
  },
  "buffers": [
    {
      "name": "cissy-right",
      "byteLength": 2436380,
      "uri": "data:application/octet-stream;base64,"
    }
  ],
  "bufferViews": [
    {
      "name": "bufferView_0",
      "buffer": 0,
      "byteLength": 925632,
      "byteOffset": 0,
      "byteStride": 12,
      "target": 34962
    },
    {
      "name": "bufferView_1",
      "buffer": 0,
      "byteLength": 308544,
      "byteOffset": 925632,
      "byteStride": 8,
      "target": 34962
    },
    {
      "name": "bufferView_2",
      "buffer": 0,
      "byteLength": 393000,
      "byteOffset": 1234176,
      "target": 34963
    },
    {
      "buffer": 0,
      "byteOffset": 1627176,
      "byteLength": 809201
    }
  ],
  "images": [
    {
      "name": "cissy-right_Layer_6",
      "mimeType": "image/png",
      "bufferView": 3
    }
  ],
  "materials": [
    {
      "name": "Layer_6_mtl",
      "pbrMetallicRoughness": {
        "baseColorTexture": {
          "index": 0
        },
        "baseColorFactor": [
          1,
          1,
          1,
          1
        ],
        "metallicFactor": 0,
        "roughnessFactor": 1
      },
      "emissiveFactor": [
        0,
        0,
        0
      ],
      "alphaMode": "OPAQUE",
      "doubleSided": false
    }
  ],
  "meshes": [
    {
      "name": "Layer_6_1",
      "primitives": [
        {
          "attributes": {
            "POSITION": 0,
            "NORMAL": 1,
            "TEXCOORD_0": 2
          },
          "indices": 3,
          "material": 0,
          "mode": 4
        }
      ]
    }
  ],
  "nodes": [
    {
      "name": "Layer_6",
      "mesh": 0
    }
  ],
  "samplers": [
    {
      "magFilter": 9729,
      "minFilter": 9986,
      "wrapS": 10497,
      "wrapT": 10497
    }
  ],
  "scene": 0,
  "scenes": [
    {
      "nodes": [
        0
      ]
    }
  ],
  "textures": [
    {
      "name": "cissy-right_Layer_6",
      "sampler": 0,
      "source": 0
    }
  ]
}
