{
  "accessors": [
    {
      "name": "Layer_1_1_positions",
      "componentType": 5126,
      "count": 34058,
      "min": [
        70.43321990966797,
        -171.2459259033203,
        -69.31536102294922
      ],
      "max": [
        92.86178588867188,
        -70.39527130126953,
        -11.205442428588867
      ],
      "type": "VEC3",
      "bufferView": 0,
      "byteOffset": 0
    },
    {
      "name": "Layer_1_1_normals",
      "componentType": 5126,
      "count": 34058,
      "min": [
        -0.9999920129776001,
        -1,
        -1
      ],
      "max": [
        0.9999970197677612,
        1,
        0.9999979734420776
      ],
      "type": "VEC3",
      "bufferView": 0,
      "byteOffset": 408696
    },
    {
      "name": "Layer_1_1_texcoords",
      "componentType": 5126,
      "count": 34058,
      "min": [
        0.000004999999873689376,
        0.0833590030670166
      ],
      "max": [
        0.9998679757118225,
        0.9999859929084778
      ],
      "type": "VEC2",
      "bufferView": 1,
      "byteOffset": 0
    },
    {
      "name": "Layer_1_1_0_indices",
      "componentType": 5123,
      "count": 168024,
      "min": [
        0
      ],
      "max": [
        34057
      ],
      "type": "SCALAR",
      "bufferView": 2,
      "byteOffset": 0
    }
  ],
  "asset": {
    "generator": "obj2gltf",
    "version": "2.0"
  },
  "buffers": [
    {
      "name": "curtain",
      "byteLength": 2132380,
      "uri": "data:application/octet-stream;base64,"
    }
  ],
  "bufferViews": [
    {
      "name": "bufferView_0",
      "buffer": 0,
      "byteLength": 817392,
      "byteOffset": 0,
      "byteStride": 12,
      "target": 34962
    },
    {
      "name": "bufferView_1",
      "buffer": 0,
      "byteLength": 272464,
      "byteOffset": 817392,
      "byteStride": 8,
      "target": 34962
    },
    {
      "name": "bufferView_2",
      "buffer": 0,
      "byteLength": 336048,
      "byteOffset": 1089856,
      "target": 34963
    },
    {
      "buffer": 0,
      "byteOffset": 1425904,
      "byteLength": 706474
    }
  ],
  "images": [
    {
      "name": "curtain_Layer_1",
      "mimeType": "image/png",
      "bufferView": 3
    }
  ],
  "materials": [
    {
      "name": "Layer_1_mtl",
      "pbrMetallicRoughness": {
        "baseColorTexture": {
          "index": 0
        },
        "baseColorFactor": [
          1,
          1,
          1,
          1
        ],
        "metallicFactor": 0,
        "roughnessFactor": 1
      },
      "emissiveFactor": [
        0,
        0,
        0
      ],
      "alphaMode": "OPAQUE",
      "doubleSided": false
    }
  ],
  "meshes": [
    {
      "name": "Layer_1_1",
      "primitives": [
        {
          "attributes": {
            "POSITION": 0,
            "NORMAL": 1,
            "TEXCOORD_0": 2
          },
          "indices": 3,
          "material": 0,
          "mode": 4
        }
      ]
    }
  ],
  "nodes": [
    {
      "name": "Layer_1",
      "mesh": 0
    }
  ],
  "samplers": [
    {
      "magFilter": 9729,
      "minFilter": 9986,
      "wrapS": 10497,
      "wrapT": 10497
    }
  ],
  "scene": 0,
  "scenes": [
    {
      "nodes": [
        0
      ]
    }
  ],
  "textures": [
    {
      "name": "curtain_Layer_1",
      "sampler": 0,
      "source": 0
    }
  ]
}
