{
  "accessors": [
    {
      "name": "Layer_9_1_positions",
      "componentType": 5126,
      "count": 44467,
      "min": [
        433.6817626953125,
        229.6866912841797,
        -419.2351379394531
      ],
      "max": [
        496.82635498046875,
        315.8193054199219,
        -341.113037109375
      ],
      "type": "VEC3",
      "bufferView": 0,
      "byteOffset": 0
    },
    {
      "name": "Layer_9_1_normals",
      "componentType": 5126,
      "count": 44467,
      "min": [
        -0.9999319911003113,
        -0.9985799789428711,
        -0.9999989867210388
      ],
      "max": [
        0.9999229907989502,
        0.9997779726982117,
        0.9998959898948669
      ],
      "type": "VEC3",
      "bufferView": 0,
      "byteOffset": 533604
    },
    {
      "name": "Layer_9_1_texcoords",
      "componentType": 5126,
      "count": 44467,
      "min": [
        0.000050999999075429514,
        0.0771000012755394
      ],
      "max": [
        0.9999819993972778,
        0.9999899864196777
      ],
      "type": "VEC2",
      "bufferView": 1,
      "byteOffset": 0
    },
    {
      "name": "Layer_9_1_0_indices",
      "componentType": 5123,
      "count": 226728,
      "min": [
        0
      ],
      "max": [
        44466
      ],
      "type": "SCALAR",
      "bufferView": 2,
      "byteOffset": 0
    }
  ],
  "asset": {
    "generator": "obj2gltf",
    "version": "2.0"
  },
  "buffers": [
    {
      "name": "jess-left",
      "byteLength": 2646864,
      "uri": "data:application/octet-stream;base64,"
    }
  ],
  "bufferViews": [
    {
      "name": "bufferView_0",
      "buffer": 0,
      "byteLength": 1067208,
      "byteOffset": 0,
      "byteStride": 12,
      "target": 34962
    },
    {
      "name": "bufferView_1",
      "buffer": 0,
      "byteLength": 355736,
      "byteOffset": 1067208,
      "byteStride": 8,
      "target": 34962
    },
    {
      "name": "bufferView_2",
      "buffer": 0,
      "byteLength": 453456,
      "byteOffset": 1422944,
      "target": 34963
    },
    {
      "buffer": 0,
      "byteOffset": 1876400,
      "byteLength": 770462
    }
  ],
  "images": [
    {
      "name": "jess-left_Layer_9",
      "mimeType": "image/png",
      "bufferView": 3
    }
  ],
  "materials": [
    {
      "name": "Layer_9_mtl",
      "pbrMetallicRoughness": {
        "baseColorTexture": {
          "index": 0
        },
        "baseColorFactor": [
          1,
          1,
          1,
          1
        ],
        "metallicFactor": 0,
        "roughnessFactor": 1
      },
      "emissiveFactor": [
        0,
        0,
        0
      ],
      "alphaMode": "OPAQUE",
      "doubleSided": false
    }
  ],
  "meshes": [
    {
      "name": "Layer_9_1",
      "primitives": [
        {
          "attributes": {
            "POSITION": 0,
            "NORMAL": 1,
            "TEXCOORD_0": 2
          },
          "indices": 3,
          "material": 0,
          "mode": 4
        }
      ]
    }
  ],
  "nodes": [
    {
      "name": "Layer_9",
      "mesh": 0
    }
  ],
  "samplers": [
    {
      "magFilter": 9729,
      "minFilter": 9986,
      "wrapS": 10497,
      "wrapT": 10497
    }
  ],
  "scene": 0,
  "scenes": [
    {
      "nodes": [
        0
      ]
    }
  ],
  "textures": [
    {
      "name": "jess-left_Layer_9",
      "sampler": 0,
      "source": 0
    }
  ]
}
