{
  "accessors": [
    {
      "name": "Layer_11_1_positions",
      "componentType": 5126,
      "count": 44274,
      "min": [
        488.93701171875,
        102.5206069946289,
        -423.0203552246094
      ],
      "max": [
        556.971435546875,
        193.0276641845703,
        -343.5442199707031
      ],
      "type": "VEC3",
      "bufferView": 0,
      "byteOffset": 0
    },
    {
      "name": "Layer_11_1_normals",
      "componentType": 5126,
      "count": 44274,
      "min": [
        -0.9999930262565613,
        -0.9999520182609558,
        -0.9998670220375061
      ],
      "max": [
        0.999966025352478,
        0.9998999834060669,
        0.9999189972877502
      ],
      "type": "VEC3",
      "bufferView": 0,
      "byteOffset": 531288
    },
    {
      "name": "Layer_11_1_texcoords",
      "componentType": 5126,
      "count": 44274,
      "min": [
        0.00004400000034365803,
        0.0770459994673729
      ],
      "max": [
        0.9999399781227112,
        0.9999669790267944
      ],
      "type": "VEC2",
      "bufferView": 1,
      "byteOffset": 0
    },
    {
      "name": "Layer_11_1_0_indices",
      "componentType": 5123,
      "count": 226728,
      "min": [
        0
      ],
      "max": [
        44273
      ],
      "type": "SCALAR",
      "bufferView": 2,
      "byteOffset": 0
    }
  ],
  "asset": {
    "generator": "obj2gltf",
    "version": "2.0"
  },
  "buffers": [
    {
      "name": "jess-right",
      "byteLength": 2658516,
      "uri": "data:application/octet-stream;base64,"
    }
  ],
  "bufferViews": [
    {
      "name": "bufferView_0",
      "buffer": 0,
      "byteLength": 1062576,
      "byteOffset": 0,
      "byteStride": 12,
      "target": 34962
    },
    {
      "name": "bufferView_1",
      "buffer": 0,
      "byteLength": 354192,
      "byteOffset": 1062576,
      "byteStride": 8,
      "target": 34962
    },
    {
      "name": "bufferView_2",
      "buffer": 0,
      "byteLength": 453456,
      "byteOffset": 1416768,
      "target": 34963
    },
    {
      "buffer": 0,
      "byteOffset": 1870224,
      "byteLength": 788292
    }
  ],
  "images": [
    {
      "name": "jess-right_Layer_11",
      "mimeType": "image/png",
      "bufferView": 3
    }
  ],
  "materials": [
    {
      "name": "Layer_11_mtl",
      "pbrMetallicRoughness": {
        "baseColorTexture": {
          "index": 0
        },
        "baseColorFactor": [
          1,
          1,
          1,
          1
        ],
        "metallicFactor": 0,
        "roughnessFactor": 1
      },
      "emissiveFactor": [
        0,
        0,
        0
      ],
      "alphaMode": "OPAQUE",
      "doubleSided": false
    }
  ],
  "meshes": [
    {
      "name": "Layer_11_1",
      "primitives": [
        {
          "attributes": {
            "POSITION": 0,
            "NORMAL": 1,
            "TEXCOORD_0": 2
          },
          "indices": 3,
          "material": 0,
          "mode": 4
        }
      ]
    }
  ],
  "nodes": [
    {
      "name": "Layer_11",
      "mesh": 0
    }
  ],
  "samplers": [
    {
      "magFilter": 9729,
      "minFilter": 9986,
      "wrapS": 10497,
      "wrapT": 10497
    }
  ],
  "scene": 0,
  "scenes": [
    {
      "nodes": [
        0
      ]
    }
  ],
  "textures": [
    {
      "name": "jess-right_Layer_11",
      "sampler": 0,
      "source": 0
    }
  ]
}
