{
  "accessors": [
    {
      "name": "Layer_3_1_positions",
      "componentType": 5126,
      "count": 6958,
      "min": [
        -10.986808776855469,
        -93.83087921142578,
        -67.66598510742188
      ],
      "max": [
        10.254112243652344,
        -55.41127395629883,
        -40.514434814453125
      ],
      "type": "VEC3",
      "bufferView": 0,
      "byteOffset": 0
    },
    {
      "name": "Layer_3_1_normals",
      "componentType": 5126,
      "count": 6958,
      "min": [
        -0.999563992023468,
        -0.9999989867210388,
        -0.9999979734420776
      ],
      "max": [
        0.9984599947929382,
        0.999422013759613,
        0.9999619722366333
      ],
      "type": "VEC3",
      "bufferView": 0,
      "byteOffset": 85584
    },
    {
      "name": "Layer_3_1_texcoords",
      "componentType": 5126,
      "count": 6958,
      "min": [
        0.00009899999713525176,
        0.16672299802303314
      ],
      "max": [
        0.9999430179595947,
        0.999983012676239
      ],
      "type": "VEC2",
      "bufferView": 1,
      "byteOffset": 0
    },
    {
      "name": "Layer_3_1_0_indices",
      "componentType": 5123,
      "count": 34434,
      "min": [
        0
      ],
      "max": [
        6957
      ],
      "type": "SCALAR",
      "bufferView": 2,
      "byteOffset": 0
    },
    {
      "name": "Layer_4_1_positions",
      "componentType": 5126,
      "count": 174,
      "min": [
        -7.574897766113281,
        -92.84159088134766,
        -53.17401123046875
      ],
      "max": [
        -1.1659239530563354,
        -88.47370147705078,
        -48.485286712646484
      ],
      "type": "VEC3",
      "bufferView": 0,
      "byteOffset": 83496
    },
    {
      "name": "Layer_4_1_normals",
      "componentType": 5126,
      "count": 174,
      "min": [
        -0.9999759793281555,
        -0.9942950010299683,
        -0.9932500123977661
      ],
      "max": [
        0.9721069931983948,
        0.9999729990959167,
        0.98614102602005
      ],
      "type": "VEC3",
      "bufferView": 0,
      "byteOffset": 169080
    },
    {
      "name": "Layer_4_1_texcoords",
      "componentType": 5126,
      "count": 174,
      "min": [
        0.0003809999907389283,
        0.00009000000136438757
      ],
      "max": [
        0.8974000215530396,
        0.9999099969863892
      ],
      "type": "VEC2",
      "bufferView": 1,
      "byteOffset": 55664
    },
    {
      "name": "Layer_4_1_0_indices",
      "componentType": 5123,
      "count": 840,
      "min": [
        0
      ],
      "max": [
        173
      ],
      "type": "SCALAR",
      "bufferView": 2,
      "byteOffset": 68868
    }
  ],
  "asset": {
    "generator": "obj2gltf",
    "version": "2.0"
  },
  "buffers": [
    {
      "name": "toilet",
      "byteLength": 987660,
      "uri": "data:application/octet-stream;base64,"
    }
  ],
  "bufferViews": [
    {
      "name": "bufferView_0",
      "buffer": 0,
      "byteLength": 171168,
      "byteOffset": 0,
      "byteStride": 12,
      "target": 34962
    },
    {
      "name": "bufferView_1",
      "buffer": 0,
      "byteLength": 57056,
      "byteOffset": 171168,
      "byteStride": 8,
      "target": 34962
    },
    {
      "name": "bufferView_2",
      "buffer": 0,
      "byteLength": 70548,
      "byteOffset": 228224,
      "target": 34963
    },
    {
      "buffer": 0,
      "byteOffset": 298772,
      "byteLength": 328120
    },
    {
      "buffer": 0,
      "byteOffset": 626892,
      "byteLength": 360766
    }
  ],
  "images": [
    {
      "name": "toilet_Layer_3",
      "mimeType": "image/png",
      "bufferView": 3
    },
    {
      "name": "toilet_Layer_4",
      "mimeType": "image/png",
      "bufferView": 4
    }
  ],
  "materials": [
    {
      "name": "Layer_3_mtl",
      "pbrMetallicRoughness": {
        "baseColorTexture": {
          "index": 0
        },
        "baseColorFactor": [
          1,
          1,
          1,
          1
        ],
        "metallicFactor": 0,
        "roughnessFactor": 1
      },
      "emissiveFactor": [
        0,
        0,
        0
      ],
      "alphaMode": "OPAQUE",
      "doubleSided": false
    },
    {
      "name": "Layer_4_mtl",
      "pbrMetallicRoughness": {
        "baseColorTexture": {
          "index": 1
        },
        "baseColorFactor": [
          1,
          1,
          1,
          1
        ],
        "metallicFactor": 0,
        "roughnessFactor": 1
      },
      "emissiveFactor": [
        0,
        0,
        0
      ],
      "alphaMode": "OPAQUE",
      "doubleSided": false
    }
  ],
  "meshes": [
    {
      "name": "Layer_3_1",
      "primitives": [
        {
          "attributes": {
            "POSITION": 0,
            "NORMAL": 1,
            "TEXCOORD_0": 2
          },
          "indices": 3,
          "material": 0,
          "mode": 4
        }
      ]
    },
    {
      "name": "Layer_4_1",
      "primitives": [
        {
          "attributes": {
            "POSITION": 4,
            "NORMAL": 5,
            "TEXCOORD_0": 6
          },
          "indices": 7,
          "material": 1,
          "mode": 4
        }
      ]
    }
  ],
  "nodes": [
    {
      "name": "Layer_3",
      "mesh": 0
    },
    {
      "name": "Layer_4",
      "mesh": 1
    }
  ],
  "samplers": [
    {
      "magFilter": 9729,
      "minFilter": 9986,
      "wrapS": 10497,
      "wrapT": 10497
    }
  ],
  "scene": 0,
  "scenes": [
    {
      "nodes": [
        0,
        1
      ]
    }
  ],
  "textures": [
    {
      "name": "toilet_Layer_3",
      "sampler": 0,
      "source": 0
    },
    {
      "name": "toilet_Layer_4",
      "sampler": 0,
      "source": 1
    }
  ]
}
