{
  "accessors": [
    {
      "name": "Layer_1_1_positions",
      "componentType": 5126,
      "count": 4160,
      "min": [
        -6.816985130310059,
        -78.26092529296875,
        -5.512878894805908
      ],
      "max": [
        7.60660982131958,
        -62.348876953125,
        37.05168533325195
      ],
      "type": "VEC3",
      "bufferView": 0,
      "byteOffset": 0
    },
    {
      "name": "Layer_1_1_normals",
      "componentType": 5126,
      "count": 4160,
      "min": [
        -0.999908983707428,
        -0.9998980164527893,
        -0.9998090267181396
      ],
      "max": [
        1,
        1,
        0.9992870092391968
      ],
      "type": "VEC3",
      "bufferView": 0,
      "byteOffset": 49920
    },
    {
      "name": "Layer_1_1_texcoords",
      "componentType": 5126,
      "count": 4160,
      "min": [
        0.00010599999950500205,
        0.0004579999949783087
      ],
      "max": [
        0.9969249963760376,
        0.999983012676239
      ],
      "type": "VEC2",
      "bufferView": 1,
      "byteOffset": 0
    },
    {
      "name": "Layer_1_1_0_indices",
      "componentType": 5123,
      "count": 20658,
      "min": [
        0
      ],
      "max": [
        4159
      ],
      "type": "SCALAR",
      "bufferView": 2,
      "byteOffset": 0
    }
  ],
  "asset": {
    "generator": "obj2gltf",
    "version": "2.0"
  },
  "buffers": [
    {
      "name": "rachel-polly",
      "byteLength": 891524,
      "uri": "data:application/octet-stream;base64,"
    }
  ],
  "bufferViews": [
    {
      "name": "bufferView_0",
      "buffer": 0,
      "byteLength": 99840,
      "byteOffset": 0,
      "byteStride": 12,
      "target": 34962
    },
    {
      "name": "bufferView_1",
      "buffer": 0,
      "byteLength": 33280,
      "byteOffset": 99840,
      "byteStride": 8,
      "target": 34962
    },
    {
      "name": "bufferView_2",
      "buffer": 0,
      "byteLength": 41316,
      "byteOffset": 133120,
      "target": 34963
    },
    {
      "buffer": 0,
      "byteOffset": 174436,
      "byteLength": 717088
    }
  ],
  "images": [
    {
      "name": "rachel-polly_Layer_1",
      "mimeType": "image/png",
      "bufferView": 3
    }
  ],
  "materials": [
    {
      "name": "Layer_1_mtl",
      "pbrMetallicRoughness": {
        "baseColorTexture": {
          "index": 0
        },
        "baseColorFactor": [
          1,
          1,
          1,
          1
        ],
        "metallicFactor": 0,
        "roughnessFactor": 1
      },
      "emissiveFactor": [
        0,
        0,
        0
      ],
      "alphaMode": "OPAQUE",
      "doubleSided": false
    }
  ],
  "meshes": [
    {
      "name": "Layer_1_1",
      "primitives": [
        {
          "attributes": {
            "POSITION": 0,
            "NORMAL": 1,
            "TEXCOORD_0": 2
          },
          "indices": 3,
          "material": 0,
          "mode": 4
        }
      ]
    }
  ],
  "nodes": [
    {
      "name": "Layer_1",
      "mesh": 0
    }
  ],
  "samplers": [
    {
      "magFilter": 9729,
      "minFilter": 9986,
      "wrapS": 10497,
      "wrapT": 10497
    }
  ],
  "scene": 0,
  "scenes": [
    {
      "nodes": [
        0
      ]
    }
  ],
  "textures": [
    {
      "name": "rachel-polly_Layer_1",
      "sampler": 0,
      "source": 0
    }
  ]
}
