{
  "accessors": [
    {
      "name": "Layer_1_1_positions",
      "componentType": 5126,
      "count": 7845,
      "min": [
        -20.86617660522461,
        -27.310020446777344,
        -13.47662353515625
      ],
      "max": [
        1.8798290491104126,
        -11.190757751464844,
        49.536048889160156
      ],
      "type": "VEC3",
      "bufferView": 0,
      "byteOffset": 0
    },
    {
      "name": "Layer_1_1_normals",
      "componentType": 5126,
      "count": 7845,
      "min": [
        -0.9999679923057556,
        -0.9999809861183167,
        -0.9999989867210388
      ],
      "max": [
        0.9998530149459839,
        0.9999989867210388,
        1
      ],
      "type": "VEC3",
      "bufferView": 0,
      "byteOffset": 94140
    },
    {
      "name": "Layer_1_1_texcoords",
      "componentType": 5126,
      "count": 7845,
      "min": [
        0.000009999999747378752,
        0.00042600001324899495
      ],
      "max": [
        0.999904990196228,
        0.9998319745063782
      ],
      "type": "VEC2",
      "bufferView": 1,
      "byteOffset": 0
    },
    {
      "name": "Layer_1_1_0_indices",
      "componentType": 5123,
      "count": 38280,
      "min": [
        0
      ],
      "max": [
        7844
      ],
      "type": "SCALAR",
      "bufferView": 2,
      "byteOffset": 0
    }
  ],
  "asset": {
    "generator": "obj2gltf",
    "version": "2.0"
  },
  "buffers": [
    {
      "name": "rachel-ken",
      "byteLength": 961392,
      "uri": "data:application/octet-stream;base64,"
    }
  ],
  "bufferViews": [
    {
      "name": "bufferView_0",
      "buffer": 0,
      "byteLength": 188280,
      "byteOffset": 0,
      "byteStride": 12,
      "target": 34962
    },
    {
      "name": "bufferView_1",
      "buffer": 0,
      "byteLength": 62760,
      "byteOffset": 188280,
      "byteStride": 8,
      "target": 34962
    },
    {
      "name": "bufferView_2",
      "buffer": 0,
      "byteLength": 76560,
      "byteOffset": 251040,
      "target": 34963
    },
    {
      "buffer": 0,
      "byteOffset": 327600,
      "byteLength": 633790
    }
  ],
  "images": [
    {
      "name": "rachel-ken_Layer_1",
      "mimeType": "image/png",
      "bufferView": 3
    }
  ],
  "materials": [
    {
      "name": "Layer_1_mtl",
      "pbrMetallicRoughness": {
        "baseColorTexture": {
          "index": 0
        },
        "baseColorFactor": [
          1,
          1,
          1,
          1
        ],
        "metallicFactor": 0,
        "roughnessFactor": 1
      },
      "emissiveFactor": [
        0,
        0,
        0
      ],
      "alphaMode": "OPAQUE",
      "doubleSided": false
    }
  ],
  "meshes": [
    {
      "name": "Layer_1_1",
      "primitives": [
        {
          "attributes": {
            "POSITION": 0,
            "NORMAL": 1,
            "TEXCOORD_0": 2
          },
          "indices": 3,
          "material": 0,
          "mode": 4
        }
      ]
    }
  ],
  "nodes": [
    {
      "name": "Layer_1",
      "mesh": 0
    }
  ],
  "samplers": [
    {
      "magFilter": 9729,
      "minFilter": 9986,
      "wrapS": 10497,
      "wrapT": 10497
    }
  ],
  "scene": 0,
  "scenes": [
    {
      "nodes": [
        0
      ]
    }
  ],
  "textures": [
    {
      "name": "rachel-ken_Layer_1",
      "sampler": 0,
      "source": 0
    }
  ]
}
